<svg id="Layer_1" data-name="Layer 1" xmlns="http://www.w3.org/2000/svg" viewBox="0 0 273.09 228.46"><defs><style>.cls-1{fill:#253189;}.cls-2{fill:#243185;}.cls-3{fill:#04a54f;}.cls-4{fill:#09a14f;}.cls-5{fill:#7d6910;}.cls-6{fill:#180812;}.cls-7{fill:#1e170f;}.cls-8{fill:#2c375f;}.cls-9{fill:#24307e;}.cls-10{fill:#2b2d2d;}.cls-11{fill:#0e3844;}.cls-12{fill:#3b162e;}.cls-13{fill:#d71e25;}.cls-14{fill:#eef2f0;}.cls-15{fill:#e6eae9;}.cls-16{fill:#1f0c1b;}.cls-17{fill:#db1e24;}.cls-18{fill:#b3222d;}</style></defs><title>pw-logo</title><path class="cls-1" d="M120.09,42.19c1.07-.32,2.34,0,3.16-1.07,4-.39,8,.85,11.86-1h23c3.75,1.42,8,.62,11.6,2.14,5.42,2.3,13.93.5,14.51,9.94a2.17,2.17,0,0,1-.32.89A2.12,2.12,0,0,0,182,54.38c-1.77,4.84-2.93,9.9-5.64,14.39a1.73,1.73,0,0,0,.76,2.34l.24.1-.47,1.88c-4.11,2.71-4.47,7-4.68,11.3.8,4-3,6.75-3,10.57a2.09,2.09,0,0,0-.94,2.29l.08-.06c-.59.21-1.59.3-1.69.65a89.19,89.19,0,0,1-7.21,18,2.47,2.47,0,0,0,.88,3.37l.12.06c-.33,1.66-1.76,3-1.33,4.82-.58.51-2.51.55-.69,1.93l-.31,1.14c-.59.06-1,.28-.65,1l-.35,0h-2c-2.78-3.41-6.6-1.91-10-1.91-3.74,0,1.06,2.93-1,3.8-.41.17-.67.68-1,1-8.55-.25-17.13.85-25.65-.86-2.24-.44-4.66-.22-6.27,2-.34,2,0,3.86,1.89,5.06-.91,5,1.35,6.72,6.08,5.86l6,1.11c.68,1.24,3.13.67,2.9,2.84-1.39.08-2.82.11-3,2-5-.2-9.34,1.89-14,3.1a2.12,2.12,0,0,1-2,1c-2.12-4.09.2-8.84-1.9-12.94l-.1-2.06a2,2,0,0,0,.79-2,6.08,6.08,0,0,0,.28-.92l.62-1.17,1.2-3.72-.89-1.19a1.53,1.53,0,0,1-.11-.79c0-2.32.09-5-2.32-5.92-1.63-.64-2.78,1.3-3.57,2.78l-2-.07c-1-1.26-2-1.25-3-.08l-3,.08c2.93-4,7.33-7,9-12,2.16-.38,2.68-1.32,1-3-.24-2.29,1-3.91,2-5.83,1.43-2.63,5.77-3.34,4.87-7.4,3.46-2.22,5.47-5.77,8.16-8.77,2.85-1,2.54-2.16,0-2.93-1.39-.38-2.94-.13-3.08-2.07h0a5.47,5.47,0,0,0,2-.16c4.73-2.84,9.13-6.38,15-7.15a2.34,2.34,0,0,0,1.69-2.84,2.17,2.17,0,0,0-.12-.36c-1.86-3.12-2.81-7.29-7.57-7.49h0c0-3.75-3.81-7.41-5.33-6.52-5.24,3.11-8.21.19-11.67-2.48h0c-.32-3.46-3-2.94-5.21-3s-4,.94-4.55,3.06c-.4,1.58-1.77,3.88.42,4.94,5.51,2.6,6.34,6,2.34,10.56-.24.28,0,1,0,1.45h0c-3,.07-5.45-.39-6.66-3.78C96.92,68,96.09,66.14,94,66.17h0c-.64-1.33-1.81-1.15-3-1h0a2.65,2.65,0,0,0-2-2h0a4.93,4.93,0,0,1,2.34-5c1.93-1.43,4-3.05,4-5.93,3.52-1.71,6.75-4.1,10.65-4.9A55.17,55.17,0,0,0,120.09,42.19Zm14.13,39c-3.56,1.87-1.41,3.35.45,4.52,1.34.84,3.14.59,4.51,1.77a4.87,4.87,0,0,0,6.88-.22,1.29,1.29,0,0,0,.16-.17c2.33-2.37-.22-3.61-1.81-4.93-.21-.17-.13-.64-.28-.93-2.23-4.43-7.09-4.44-10,0Zm-23.5,28.18c-.11-.29-.15-.72-.35-.8s-.55.17-.83.28c.11.28.16.71.35.8S110.44,109.48,110.72,109.37Z" transform="translate(-11.84 -26.99)"/><path class="cls-2" d="M92.09,241l-3-.91a3.58,3.58,0,0,0-1.6-3c-4.12-2.72-8.28-5.39-12.42-8.07.15-2.2-2-2.6-3-3.93,3-1.67-2.14-3.35,0-5h4c2,1.66,4-.75,6,0h1c.89,1.11-.4,4.9,3.24,2.62a26.1,26.1,0,0,1,2.81,1c12.94,6.16,25.2,7.07,35.88-4.55a7.45,7.45,0,0,0,.09,1c.25,7,2,13.88,3,20.82.44,3.11.29,6.66,4,8.19h0c0,2.12,1.22,3.28,3.17,2.68,3.45-1,6.92-.52,10.38-.62s7.24.07,10.44-2c4.71-1.95,9.6-3.71,10.15-9.91,3.11-1.5,2.73-4.41,2.87-7.11h0c2.07,0,3.18-1.34,4-3.07h0l1.15-.9c2.41.58,4.8,1.29,7.23,1.72,4.55.81,10.54-2.59,11.33-6.3.62-3.5-3.54-7.5-8.77-8.5-4.78-2.72-4-5.4-.13-8.37a37.58,37.58,0,0,0,4.84-4.93,8.46,8.46,0,0,0,1.48-10c-.62-5.06-4.52-6.25-8.55-6.71-5.92-.69-11.49-1.55-13.78-8.24a2.63,2.63,0,0,0-2.86-1.62c-.69-1.66-1.37-3.33-2.06-5,3.13-1.73,5.81,1.44,9.31.42,10.27-3,20.8-5.09,31.23-7.52,1.93-.44,4-.56,4.65-3l1.87,0,8-.29c-.11,2.21,1.76,3.47,2.51,5.29,1.11,2.66.14,4.53-2.42,4.76-6.31.59-12.55,2.46-19,0a13.41,13.41,0,0,0-12.1,1c7,.16,13.51,2.4,20.1,4.21-2.13.82-4.7.74-6.19,2.92l-1,.92c-1.59.52-1.72,1.81-1.72,3.2v27.84c0,1.72.25,3.31,1.8,4.38a5.79,5.79,0,0,0,2.28,4.9v.68c1.5,3.71,4.28,3.44,7.43,2.53a87.18,87.18,0,0,0,19.31-8.4l.07,6.22-2,1.89c-4.07-.84-6.37,1.18-6.22,5.45a.75.75,0,0,1-.42.34c-4.89-.93-6.34.23-7.52,6l.12.32-1-.07c-1.91-1.75-1.81-.19-1.87,1.13l.07-.09-1.24.73L207,238.09c-2.86.07-17.68,6.47-19.66,8.49a1.42,1.42,0,0,0-.23.44.72.72,0,0,1-.75.19c-4.53-.08-8.47,1.72-12.32,3.83l-16.85,2.13c-2.88-.62-5.54.74-8.35.93-12.44.88-24.21-2.7-36.09-5.44-2-.48-3.75-2-5.87-.46a1,1,0,0,1-.86-.2c-3.17-4.62-8.6-4.82-13.14-6.78l.08.08C92.86,240.71,92.63,240.42,92.09,241ZM208,167.09c2.39.08,5.58,0,5.29-2.43-.36-3-3.17-.55-4.9-.59a2,2,0,0,0-.49,0c-1.3.28-3.56-.62-3.38,1.66C204.63,167.8,206.83,166.81,208,167.09Zm-7.65,61.34a1.45,1.45,0,0,0,1.3,1.59h.24c.84,0,1.78,0,1.79-1.11a1.69,1.69,0,0,0-1.59-1.59,1.32,1.32,0,0,0-1.68.84,1.14,1.14,0,0,0-.06.25Zm7.17,1c.28.12.62.4.82.32s.26-.51.38-.79c-.28-.12-.62-.39-.81-.31s-.26.44-.39.71Z" transform="translate(-11.84 -26.99)"/><path class="cls-3" d="M120.17,88.09c-2.69,3-4.7,6.53-8.19,8.74-1.39.09-2.26.9-3.33,1.78-4.69,3.87-5.48,9.68-7.76,14.72-3,6.56-6.38,7.76-12.13,3.76-3.3-2.3-6-2.38-8.73.67-2.3.69-4.36.61-6.2-1.3-1.22-1.24-2.74-2.29-4.74-1.94l-7.91-3.68c-3.71-4.29-8.93-5-14.06-5.92.31-3.62,1.35-7.17.93-10.85,1.29-2.35,3.35-4.26,4-7h0C55,86,55.38,82.81,57.19,80.8c3.34.81,1.09-1.94,1.79-2.81h0c2.4.22,3.07-2.31,4.87-3,1.53.11,2.24-.6,2.14-2.13.93-2.18,3.93-2.87,4.06-5.62,6.5-4.71,12.26-10.57,20.18-13.08.09,2-1,3.24-2.19,4.67s-2.21,3.55,1,4.31h0c-.12,1.47.63,2,2,2h0c.63,1.34,1.82,1.12,2.95,1h0c0,3.1,2.1,5.17,3.93,7.21s4.26,2.62,6.17-.26h0c6.15-4.83,6.26-7.28.47-12.34a3.17,3.17,0,0,1-1.26-3.44,3,3,0,0,1,3-2,27.66,27.66,0,0,1,4.79.78h0c.74,1.46,1.47,2.93,2.22,4.38,1.64,3.22,3.57,4.82,6.58,1.28,1.64-1.94,3.28-1,4.57.44,1.07,1.18,1.63,2.9,3.63,2.9h0c1.24,1.55,2.61,3,3.7,4.65,1.41,2.13,2.2,3.25-1.59,4.76-4.72,1.85-10.53,3.06-13.11,8.59h0c-2.84.42-1.91,2.72-2.69,4.57C116.6,87.8,118.63,86,120.17,88.09Z" transform="translate(-11.84 -26.99)"/><path class="cls-4" d="M197.09,114.09a1.22,1.22,0,0,0,1-.18c4.77-2.86,10.3-4.31,14.71-7.85,4.18.06,7.71-1.26,10.18-4.81,4.68-2.26,9.43-4.4,14-6.83,7-3.69,8.43-3.13,10.35,4.49,1.86,3.4,2.1,7.7,5.61,10.19A94.25,94.25,0,0,1,258.27,129c-1.33,1.5-1.74.42-2.23-.75-.6-1.42-.85-3.17-2.83-3.49a2.72,2.72,0,0,0-.2-.63c.14-.7-.24-1-.84-1.22a2.33,2.33,0,0,0-.3-.81c.22-.86.39-1.7-.74-2.09a2.54,2.54,0,0,0-.3-.85c.62-2.43-1.85-3.88-1.94-6.09l-.74-1.77c.16-1.82.44-3.67-1.67-4.69-4-4.58-8.21-1.29-12.38-.46h0c-.89-.21-1.66-.13-2.06.84l-1.07.27c-3.22-.65-5.7.73-7.93,2.84h0c-.93-.18-1.73-.09-2,1h0c-2.57.32-2.66,2.56-3.25,4.33-1.6,4.76-3.09,9.56-4.62,14.34-.21.88.09,1.93-.84,2.57l-3.24-.29a2,2,0,0,0-1.9-1.06c-1-1.94-.52-4.36-2.1-6.08-.18-2-1.3-3-3.23-2.89s-2.67-.87-3.48-2.16c0-.26-.1-.53-.16-.8-.24-1.32.49-2.89-1-3.89a1.69,1.69,0,0,0-.13-.49Z" transform="translate(-11.84 -26.99)"/><path class="cls-5" d="M231.25,42.09c6.25,4.21,11.84,9.09,16,15.47A10.4,10.4,0,0,0,249,59.22c2.42,5.31,7.52,8.67,10.15,13.84l.35,2.11c-1.18,4.45-4.76,2.58-7.52,2.85l-1.69-3a23.33,23.33,0,0,0-5.78-8.24l-1.15-1.91-1.92-1L239,60.18c-1-3.79-4.2-5.34-7.23-7C226,47.82,218.94,44.51,212,41.06c-1.63-3.86-5.67-3.34-8.67-4.53-2.81-1.1-4.47-2.49-4.42-5.57v.14c1.31-.41,1.22-1.16.5-2.07a3.28,3.28,0,0,1-.14-.82c5.11-3.26,8.7.78,12.1,3.15a67.23,67.23,0,0,0,9.73,5.54c1,3.15,3.78,2.72,6.14,3.14l-.1-.09C227.55,42.51,229.6,41.89,231.25,42.09Z" transform="translate(-11.84 -26.99)"/><path class="cls-4" d="M243.09,83.09l-2,1.15c-2.5,0-4.09,2-6.19,2.84-.77.13-1.61.17-1.79,1.19l.08-.07a15.7,15.7,0,0,0-10,4.77l-2.1,1.18c-2.16.18-4.35.31-5,3V97.1c-.88,0-1.71.05-2.06,1.07l.07-.06c-1.48-.79-5.26,1.36-4.4-1.67,1-3.61.16-6.8,0-10.14-.14-2.83.56-4,3.61-4.52s7.32.67,9-3.68h.78c5.41-2.74,10.9-4.82,17-2h0c2.33,3.62,6.34.28,9.08,2.18C248.19,81.24,244.22,80.37,243.09,83.09Z" transform="translate(-11.84 -26.99)"/><path class="cls-6" d="M262.09,201.09l-2,.44c-.73-.42-.88,0-.84.61-5.61,3.2-11.91,3.23-18.07,4,0-1.41-.1-2.83-.14-4.24,6,3.09,10.9-.22,15.94-2.73a26.63,26.63,0,0,0,13.11-10l.93-1,.06-.07,1-.93h0c3.3-2.23,4.63-6,7-9l1.81,2c-1.28,4.89-5.15,8.13-7.76,12.17Z" transform="translate(-11.84 -26.99)"/><path class="cls-7" d="M27.09,200.27c-3-.66-6.12-1-8.38-3.42-1-2.14-5.27-2.3-3.61-6,3.54,3.5,8,5.26,12.7,6.23,3.23.66,5.57-.17,5.27-4.31a9.79,9.79,0,0,1,2.33-7.24c2.6,2.11,1.57,5,1.92,7.46-1.78,1.7-1.88,4.07-2.49,6.25l-.73.73-4,1h0A3.64,3.64,0,0,0,27.09,200.27Z" transform="translate(-11.84 -26.99)"/><path class="cls-8" d="M31.23,165.09c3.23-2.42,3.34-5.54,2-9V134.7c1.19-1.75,1-3.7.88-5.65.11-.4.22-.81.32-1.22l1.74-1.71c2.18,2.37-2.67,4.58-.16,7-.13.1-.38.23-.37.28a5.1,5.1,0,0,0,.45.69v2c-1.09.77-.93,1.9-.86,3v12c-.16,3.36-.22,6.72,1,10v3.83Z" transform="translate(-11.84 -26.99)"/><path class="cls-8" d="M106.9,248.19c2.12-1.55,3.83,0,5.87.46,11.88,2.74,23.65,6.32,36.09,5.44,2.81-.19,5.47-1.55,8.35-.93l2.51,1.34a2.89,2.89,0,0,1-.62.64l-2,.08-5,.23-13-.08-10-1.08-7-1.2C117.23,250.87,111.51,251.25,106.9,248.19Z" transform="translate(-11.84 -26.99)"/><path class="cls-9" d="M72.09,225.09c1,1.33,3.17,1.73,3,3.93H73.27A78.07,78.07,0,0,1,55.9,213.09l.24-.1.16.21L61,210.94c-.08,2.62.37,5,3.11,6.18Z" transform="translate(-11.84 -26.99)"/><path class="cls-10" d="M39.16,111.09l2.71-5.61c.29,1.24,0,2.69,1.23,3.6-.14.38-.27.76-.4,1.15-2.59,1.19-1.72,3-.85,4.8-.24,3.81-.45,7.62-.73,11.42-.33,4.58-2.22,9.1-.39,13.73L40.09,142c-3.34-4.72-1-9.79-.92-14.73,1.76-3.23.85-6.72.83-10.08,0-2.77-1.51.4-2.18-.32l.1-1.74A6.68,6.68,0,0,0,39.16,111.09Z" transform="translate(-11.84 -26.99)"/><path class="cls-8" d="M185.57,50.24c-.46.64-.25,1.74-1.33,2-.58-9.44-9.09-7.64-14.51-9.94-3.56-1.56-7.85-.76-11.64-2.21V39c5.09-.11,10,1.4,15,1.91l6,1.86,4,1.25c1,1.28,3.52.85,3.77,3.12l-.75,1.12c-1.29.18-.91.84-.43,1.52Z" transform="translate(-11.84 -26.99)"/><path class="cls-10" d="M253.22,124.77c2,.32,2.23,2.07,2.83,3.49.49,1.17.9,2.25,2.23.75,3.38,7,1.72,14.53,1.91,21.84.06,2.23.05,3.75,2.84,2.5l-.06,1.5-4,.13c-.05-1.27-.11-2.55-.17-3.82,0-.72,0-1.44.05-2.16,0-3.64,1.16-7.38-.79-10.88,1-2,1.29-3.6-1.6-4l-.73-1C255.17,130.24,252.09,128.14,253.22,124.77Z" transform="translate(-11.84 -26.99)"/><path class="cls-8" d="M120.09,42.19A55.34,55.34,0,0,1,106,47.3c-3.9.8-7.13,3.19-10.65,4.9L95,50.4C102.86,46.37,110.86,42.47,120.09,42.19Z" transform="translate(-11.84 -26.99)"/><path class="cls-8" d="M240,208.92c-1.51.8-1.82,3-3.86,3.21l-3-1.06c.38-.9.77-1.8,1.15-2.71,1.34-.23,1.42-1,1-2.11a3.47,3.47,0,0,0,2.79-2.07c.36-1,.71-2.06,1.06-3.09l1.68.16a.8.8,0,0,1,.24.56c0,1.41.09,2.83.14,4.24C240.79,207,240.4,208,240,208.92Z" transform="translate(-11.84 -26.99)"/><path class="cls-8" d="M188.09,247.27l-1-.26a1.42,1.42,0,0,1,.23-.44c2-2,16.8-8.42,19.66-8.49v1h0l-16.1,8Z" transform="translate(-11.84 -26.99)"/><path class="cls-8" d="M73.29,229.09h1.82c4.14,2.68,8.3,5.35,12.42,8.07a3.58,3.58,0,0,1,1.6,3C83.32,237.17,77.77,233.89,73.29,229.09Z" transform="translate(-11.84 -26.99)"/><path class="cls-11" d="M44.25,99.38c1.84-1.39,1.48-4.29,3.84-5.29.42,3.68-.62,7.23-.93,10.85l-5.07.15C41.86,102.83,44,101.45,44.25,99.38Z" transform="translate(-11.84 -26.99)"/><path class="cls-11" d="M94.91,50.4l.42,1.8c.06,2.88-2,4.5-4,5.93a4.93,4.93,0,0,0-2.34,5c-3.21-.76-2.27-2.8-1-4.31s2.28-2.72,2.19-4.67C92.5,53.8,92,50,94.91,50.4Z" transform="translate(-11.84 -26.99)"/><path class="cls-10" d="M198.49,37l-.93-2.87c.19-1,.39-1.92.58-2.88a5.41,5.41,0,0,0,.77-.27c0,3.08,1.61,4.47,4.42,5.57,3,1.19,7,.67,8.67,4.53l-.25.17-1.66-.12C206.37,39.34,202.63,37.59,198.49,37Z" transform="translate(-11.84 -26.99)"/><path class="cls-12" d="M42.09,105.09l5.09-.17c5.13.92,10.35,1.63,14.06,5.92h-1c-3.37-1.38-6.69-2.93-10.14-4.09-2.74-.91-5.68-1.42-7,2.37-1.26-.91-.94-2.36-1.23-3.6v-.27Z" transform="translate(-11.84 -26.99)"/><path class="cls-5" d="M11.91,159.09c-.51-2.5,2-3.08,2.93-4.68-.27,1,.32,1.41,1.13,1.68-3.31,2.34-1.47,5.88-2.06,8.85-1.8,2.83-.26,6-1,9a1.9,1.9,0,0,0-.63-.33c-.09-2.84-.17-5.68-.26-8.52v-2Z" transform="translate(-11.84 -26.99)"/><path class="cls-8" d="M63.85,75c-1.8.73-2.47,3.26-4.87,3A34.37,34.37,0,0,1,70.09,67.24C70,70,67,70.68,66,72.86Z" transform="translate(-11.84 -26.99)"/><path class="cls-4" d="M194.86,47.09c.56-1,1.11-2,1.66-2.94h3.53c.66,2.45-1.17,4.54-1,6.91h0L195.28,51l-1.19-1.39a1.22,1.22,0,0,1,.11-.56c.64,0,1-.3.78-1Z" transform="translate(-11.84 -26.99)"/><path class="cls-8" d="M106.09,248l-1.58-.06c-2.85-1.29-5.72-2.53-8.53-3.91-1.25-.61-3-.8-3-2.81C97.44,243.17,102.87,243.37,106.09,248Z" transform="translate(-11.84 -26.99)"/><path class="cls-9" d="M220.56,227.93,215.91,233,213,234C214.22,228.16,215.67,227,220.56,227.93Z" transform="translate(-11.84 -26.99)"/><path class="cls-8" d="M186.38,247.2c-2.29,4.16-7.19,2.44-10.29,4.65l-2,.08V251C177.91,248.92,181.85,247.09,186.38,247.2Z" transform="translate(-11.84 -26.99)"/><path class="cls-8" d="M194.09,49.61,195.3,51c.21,1,1.1,1.08,1.89,1.28A10.24,10.24,0,0,0,192,59.82c-.19.94-1,1.15-1.85,1.27q1.49-5.45,3-10.9Z" transform="translate(-11.84 -26.99)"/><path class="cls-9" d="M37.84,116.83c.67.72,2.17-2.45,2.18.32,0,3.36.93,6.85-.83,10.08.05-2-.59-3.38-2.92-3.19l-.34.1c.1-1,.19-2.07.29-3.1,2.84-.47,1.63-2.59,1.7-4.18Z" transform="translate(-11.84 -26.99)"/><path class="cls-12" d="M12.9,174c.75-3-.79-6.15,1-9q.28,12.48.55,25c-2.53-.58-1.55-2.6-1.61-4.11-.11-2.24,0-4.5,0-6.75v-2Z" transform="translate(-11.84 -26.99)"/><path class="cls-6" d="M283,176.09a5.24,5.24,0,0,0-.78.3l-1.84-1.58c.61-2.56,1.23-5.13,1.85-7.69l1.48-1.11.48,2.28v2.82Q283.63,173.56,283,176.09Z" transform="translate(-11.84 -26.99)"/><path class="cls-7" d="M284.2,168.26l-.48-2.28-1.48,1.11c-.44-3,.57-6.17-1-9.06,1.18-.35,1.69.72,2.49,1.17,1.3,2.72,1.22,5.63,1.19,8.53A3.11,3.11,0,0,0,284.2,168.26Z" transform="translate(-11.84 -26.99)"/><path class="cls-11" d="M174.09,251v.9l-1,.41a1.74,1.74,0,0,0-2.06.71c-1.44.24-3.05-.32-4.28.89l-.37-.07-.27.27-2,.12-4.38.24-2.51-1.34Z" transform="translate(-11.84 -26.99)"/><path class="cls-11" d="M158.09,39v1.1h-23v-1A148.4,148.4,0,0,1,158.09,39Z" transform="translate(-11.84 -26.99)"/><path class="cls-8" d="M247.34,98.88a1.65,1.65,0,0,0,.73-.63l.74.85c-.12.84.41,1.21,1.05,1.51a.36.36,0,0,0,.25.46h0l.72,1.5c.69,2.17,1.39,4.33,2.08,6.49C249.44,106.58,249.2,102.28,247.34,98.88Z" transform="translate(-11.84 -26.99)"/><path class="cls-12" d="M274.93,152.47l.24,1.48c-3,0-6.08-.38-9.09.36l-1-1.1C268.23,151.3,271.6,152.14,274.93,152.47Z" transform="translate(-11.84 -26.99)"/><path class="cls-8" d="M135.09,39.09v1c-3.82,1.85-7.91.61-11.86,1C126.92,39.09,131.09,39.27,135.09,39.09Z" transform="translate(-11.84 -26.99)"/><path class="cls-10" d="M227.23,40.09c-2.36-.42-5.17,0-6.14-3.14C223.34,37.54,226.09,37.16,227.23,40.09Z" transform="translate(-11.84 -26.99)"/><path class="cls-13" d="M265.09,153.21l1,1.1c-.67,2.29-1.75,2.23-3.11.54l.06-1.5Z" transform="translate(-11.84 -26.99)"/><path class="cls-10" d="M37.92,116.86c-.07,1.59,1.17,3.71-1.7,4.23C35.54,119.14,36.49,117.9,37.92,116.86Z" transform="translate(-11.84 -26.99)"/><path class="cls-10" d="M231.25,42.09c-1.65-.15-3.7.47-4.12-2.09A6.62,6.62,0,0,1,231.25,42.09Z" transform="translate(-11.84 -26.99)"/><path class="cls-8" d="M57.24,80.81a2.29,2.29,0,0,0-.31-.74L59,78C58.33,78.87,60.58,81.62,57.24,80.81Z" transform="translate(-11.84 -26.99)"/><path class="cls-8" d="M92.09,241c.52-.56.75-.27.87.31A1.83,1.83,0,0,1,92.09,241Z" transform="translate(-11.84 -26.99)"/><path class="cls-14" d="M185.71,49.77c-.48-.68-.86-1.34.43-1.52C186,48.75,185.85,49.26,185.71,49.77Z" transform="translate(-11.84 -26.99)"/><path class="cls-14" d="M194.94,48.09c.17.67-.14,1-.78,1Z" transform="translate(-11.84 -26.99)"/><path class="cls-15" d="M250.87,102.58l-.72-1.5Z" transform="translate(-11.84 -26.99)"/><path class="cls-15" d="M55.9,213.09l-.9-.87.58-.54.72,1.52-.16-.21Z" transform="translate(-11.84 -26.99)"/><path class="cls-13" d="M95.09,125.09l3-.08c1,.54,1.9,1.49,3.24,1l4.89,3.08-.55,3.15c-1,0-2.09-.25-2.86.15-1.69.87-4.1,0-5.16,2.17a1.27,1.27,0,0,0,.44,1.18,6,6,0,0,0,6.32-1.27,3.45,3.45,0,0,1,.88-.38l-1.05,4c-1.85.42-4.77-1.23-5.08,2.27-.45,5.19.35,10.18-3.63,15.12-2,2.43-1.84,3.58-4.53,1.63a10.86,10.86,0,0,0-2.76-1q-.17-9-.32-17.92c0-1.38.11-2.76.16-4.14,1.32-1.52,1-3.22.57-5C88.56,124.15,90.86,123.09,95.09,125.09Z" transform="translate(-11.84 -26.99)"/><path class="cls-8" d="M95.09,125.09c-4.24-2-6.54-.91-6.45,4-.76.07-1.3.38-1.35,1.23l-1.2.77a3,3,0,0,0-2-2h0c.08-.9-.06-1.68-1.08-2v.08c-.1-.69-.31-1-.91-.33a3,3,0,0,0-.94.09h0l-.07-1.73a2.74,2.74,0,0,0-2.16-3H79l-1-1h0l.09-1.06L80,117.75c2.7-3,5.43-3,8.73-.66,5.75,4,9.18,2.78,12.13-3.76,2.28-5,3.07-10.85,7.76-14.72,1.07-.88,1.94-1.69,3.33-1.78.9,4.06-3.44,4.77-4.87,7.4-1,1.94-2.28,3.56-2,5.86-1.12.73-.94,1.9-1,3C102.43,118.09,98,121,95.09,125.09Z" transform="translate(-11.84 -26.99)"/><path class="cls-8" d="M157.09,128.09V131c-1.15.63-.56,1.65-.58,2.54l-.42.51c-2.28-.29-4.11-2.2-6.59-1.81-8.7,1.39-17.46.31-26.18.68-3.4.14-6.84-1.57-10.21.19a1.81,1.81,0,0,0-2-1c1.61-2.18,4-2.4,6.27-2,8.59,1.74,17.17.64,25.71.94,2,.31,3.9-.36,5.76-.92,2.09-.64,5.14,1.65,6.26-2Z" transform="translate(-11.84 -26.99)"/><path class="cls-11" d="M134.14,81.16c2.9-4.42,7.76-4.41,10,0,.15.29.07.76.28.93,1.59,1.32,4.14,2.56,1.81,4.93a4.86,4.86,0,0,1-6.86.59l-.23-.2c-1.37-1.18-3.17-.93-4.51-1.77-1.86-1.17-4-2.65-.45-4.52.94,2.82,5.31,5.31,7.82,4.52,1.89-.6,1.55-1.72.82-3C140.53,78.68,137.26,80.36,134.14,81.16Z" transform="translate(-11.84 -26.99)"/><path class="cls-11" d="M117.09,83.09c2.62-5.49,8.43-6.7,13.15-8.57,3.79-1.51,3-2.63,1.59-4.76-1.13-1.67-2.5-3.14-3.74-4.67,4.76.22,5.71,4.39,7.52,7.51a2.35,2.35,0,0,1-1.22,3.08l-.3.1c-5.82.77-10.22,4.33-15,7.11A6.74,6.74,0,0,1,117.09,83.09Z" transform="translate(-11.84 -26.99)"/><path class="cls-11" d="M111.09,56.09a27.76,27.76,0,0,0-4.78-.81,3,3,0,0,0-3,2,3.17,3.17,0,0,0,1.26,3.44c5.79,5.06,5.68,7.51-.47,12.34,0-.49-.19-1.17.05-1.45,3.94-4.52,3.11-7.92-2.38-10.52-2.19-1.06-.82-3.36-.42-4.94.53-2.12,2.31-3.13,4.55-3.06S110.79,52.62,111.09,56.09Z" transform="translate(-11.84 -26.99)"/><path class="cls-7" d="M105.67,132.26c.19-1,.37-2.1.55-3.15,3.17.39.93,3.68,2.6,4.87-.2.39-.41.78-.62,1.17-.15,0-.42.11-.42.16a3.28,3.28,0,0,0,.14.76,2,2,0,0,1-.83,2c-1.88,1.74-.73,4-1,6-.46,3,1,6.17-1,9-.27-.19-.54-.36-.82-.54V138.09l1-4C105.42,133.45,105.55,132.85,105.67,132.26Z" transform="translate(-11.84 -26.99)"/><path class="cls-11" d="M128.09,65.09c-2,0-2.58-1.72-3.64-2.92-1.27-1.45-2.91-2.38-4.55-.44-3,3.54-4.94,1.94-6.58-1.28-.75-1.45-1.48-2.92-2.23-4.36,3.45,2.69,6.42,5.61,11.68,2.5C124.3,57.68,128.09,61.34,128.09,65.09Z" transform="translate(-11.84 -26.99)"/><path class="cls-8" d="M168.29,97.19c-2,7.61-4.16,15.13-7.94,22.08a2.44,2.44,0,0,1-1.08-3.28l.08-.14a89.19,89.19,0,0,0,7.21-18C166.7,97.49,167.7,97.4,168.29,97.19Z" transform="translate(-11.84 -26.99)"/><path class="cls-2" d="M155.09,128.09c-1.12,3.65-4.17,1.36-6.26,2a13.22,13.22,0,0,1-5.74,1c.34-.35.6-.86,1-1,2.09-.87-2.71-3.79,1-3.8C148.52,126.21,152.34,124.71,155.09,128.09Z" transform="translate(-11.84 -26.99)"/><path class="cls-6" d="M125.09,144.17l-6-1.11-2.2-2a18.19,18.19,0,0,0,4.41.49c3.21-.39,6.86,1.58,9.58-1.64a3.14,3.14,0,0,1,3.45-.13l.18,2.61-.18.13-2.47.66Z" transform="translate(-11.84 -26.99)"/><path class="cls-8" d="M183.92,53.09c-1.56,6.27-3,12.57-6.59,18.12a1.74,1.74,0,0,1-1.1-2.2,2.44,2.44,0,0,1,.1-.24c2.71-4.49,3.87-9.55,5.64-14.39A2.12,2.12,0,0,1,183.92,53.09Z" transform="translate(-11.84 -26.99)"/><path class="cls-9" d="M111.09,152.09c4.61-1.21,9-3.3,13.94-3.06l.06.06c0,.66-.09,1.31-.13,2-1.56,1-2.65,2.76-4.7,3C117.59,151.68,114.32,152,111.09,152.09Z" transform="translate(-11.84 -26.99)"/><path class="cls-11" d="M111.09,152.09c3.23-.1,6.5-.41,9.18,2-.67,1.33-1.6,2.22-3.24,1.83-2.67-2.71-4.34-2.46-7.94,1.17l-1.8.15-.26-2.15.37-.12c1.18-.08,1.63-.82,1.7-1.9A2.13,2.13,0,0,0,111.09,152.09Z" transform="translate(-11.84 -26.99)"/><path class="cls-11" d="M104.09,73.09c-1.92,2.89-4.22,2.44-6.14.28S94,69.26,94,66.16c2.12,0,3,1.84,3.41,3.15C98.65,72.69,101.14,73.15,104.09,73.09Z" transform="translate(-11.84 -26.99)"/><path class="cls-8" d="M176.86,73.09c-1.22,3.9-.92,8.44-4.68,11.3C172.39,80.09,172.75,75.8,176.86,73.09Z" transform="translate(-11.84 -26.99)"/><path class="cls-11" d="M120.17,88.09c-1.54-2.09-3.57-.31-5.82-.49.74-1.83-.15-4.13,2.74-4.51.19,2,1.74,1.73,3.11,2.13C122.71,86,123,87.09,120.17,88.09Z" transform="translate(-11.84 -26.99)"/><path class="cls-16" d="M108.82,134c-1.67-1.19.57-4.48-2.6-4.87l-4.89-3.1a5,5,0,0,1-.24-.92l2,.1c1.82,1.33,4.42,1.19,5.91,3.14a1.63,1.63,0,0,0,.09.76l.93,1.17Z" transform="translate(-11.84 -26.99)"/><path class="cls-9" d="M109,128.3c-1.49-2-4.09-1.81-5.89-3.14.81-1.48,2-3.42,3.59-2.78C109.09,123.32,109,126,109,128.3Z" transform="translate(-11.84 -26.99)"/><path class="cls-16" d="M105.09,153.09c2-2.8.56-6,1-9,.31-2-.84-4.27,1-6,0,.67,0,1.35.07,2a89.69,89.69,0,0,0,.2,14.84l-.37.12h-1.87Z" transform="translate(-11.84 -26.99)"/><path class="cls-9" d="M107.4,155a89.09,89.09,0,0,1-.2-14.88c2.1,4.1-.22,8.85,1.9,12.94C109,154.15,108.58,154.89,107.4,155Z" transform="translate(-11.84 -26.99)"/><path class="cls-9" d="M117,141.09l2.2,2c-4.73.86-7-.85-6.08-5.86l1.27-.34-.13.14C114,139.09,115.41,140.09,117,141.09Z" transform="translate(-11.84 -26.99)"/><path class="cls-12" d="M114.34,136.86l-1.25.34c-1.93-1.2-2.23-3-1.89-5.06a1.81,1.81,0,0,1,2,1C113.5,134.38,114.78,135.34,114.34,136.86Z" transform="translate(-11.84 -26.99)"/><path class="cls-9" d="M125.09,144.17l6.81-1q-1.36,2-2.75,4.07h0l-1.06-.15L128,147C128.24,144.84,125.79,145.41,125.09,144.17Z" transform="translate(-11.84 -26.99)"/><path class="cls-9" d="M104.09,113.09c.06-1.09-.12-2.26,1-3C106.74,111.75,106.22,112.69,104.09,113.09Z" transform="translate(-11.84 -26.99)"/><path class="cls-9" d="M101.09,125.09a4.59,4.59,0,0,0,.25,1c-1.33.46-2.21-.49-3.23-1C99.09,123.81,100.09,123.8,101.09,125.09Z" transform="translate(-11.84 -26.99)"/><path class="cls-9" d="M125,149c.16-1.91,1.59-1.94,3-2l.06.06v1.06h0l-1,.94h-2Z" transform="translate(-11.84 -26.99)"/><path class="cls-9" d="M110.72,109.37c-.28.11-.63.37-.83.28s-.24-.52-.35-.8c.28-.11.63-.37.83-.28S110.61,109.09,110.72,109.37Z" transform="translate(-11.84 -26.99)"/><path class="cls-11" d="M91.09,65.09c-1.4.09-2.15-.49-2-2A2.65,2.65,0,0,1,91.09,65.09Z" transform="translate(-11.84 -26.99)"/><path class="cls-11" d="M94.09,66.15c-1.13.08-2.32.3-3-1C92.24,65,93.41,64.82,94.09,66.15Z" transform="translate(-11.84 -26.99)"/><path class="cls-8" d="M169.15,95a1.89,1.89,0,0,1-.94,2.29A2.09,2.09,0,0,1,169.15,95Z" transform="translate(-11.84 -26.99)"/><path class="cls-16" d="M107.92,136.09a3.28,3.28,0,0,1-.14-.76c0-.05.27-.11.42-.16A6.08,6.08,0,0,1,107.92,136.09Z" transform="translate(-11.84 -26.99)"/><path class="cls-9" d="M110,130.26l-.93-1.17Z" transform="translate(-11.84 -26.99)"/><path class="cls-3" d="M109.09,157.09c3.6-3.65,5.27-3.9,7.94-1.18-2.71,1.14-3.53,3.81-4.89,6v1.23c0,.27.07.53.09.8-1.5,1.09-1,1.7.49,2.09,1.86,3.41,5,4.72,8.61,5.14,11.46,1.3,23,.53,34.43.75,2.88.17,3.52-1.31,2.33-3.83,1.74-1.4,2.67.35,3.88,1l1.12,1.14c.69,1.66,1.37,3.33,2.06,5,.68,1.3,1.35,2.61,2,3.91,2.38,4.48,2.24,4.7-3,4.78-6.06.09-12.14.06-18.15,1-.74-.94-1.39-.81-2,.17l-1.62.1-1.29.78-1,.12a2,2,0,0,0-2,1,1.64,1.64,0,0,1-.69.18c-1.69.19-4-.08-2.36,2.84l-.17,1.71c-2.52.58-1.2,2.88-1.91,4.27-2-.12-3.36.8-2.78,2.82,1.52,5.29-1.36,4.36-4.43,3.35a2.14,2.14,0,0,1-.66-.17v-1a1.77,1.77,0,0,0-1.54-2h0l-1-.41-1.24-1.76L119.2,195l-1-1c-.33-.33-.65-.67-1-1l-1.78-1.23-1-1c-3-1.46-2.85-5.71-6.18-6.83l-.15-1.83a1.81,1.81,0,0,0-1.6-2h-.4c-.06-1.09.19-2.3-1.1-2.92h0q0-3.48.08-7a1,1,0,0,1,.7-.21c4-.9,4.67-4.33,1.49-7.88v-3a1.75,1.75,0,0,0,1.84-1.65A1.29,1.29,0,0,0,109.09,157.09Z" transform="translate(-11.84 -26.99)"/><path class="cls-4" d="M125.74,202.25c3.08,1,6,1.94,4.44-3.35-.58-2,.77-2.94,2.78-2.82.08,8.46-.1,16.93.34,25.37.4,7.88,6.5,12,16.26,11.29,7.3-.52,3.66-6.31,4.57-9.91a2,2,0,0,0,0-.49c-.3-3.16,1.07-3.24,3.5-2.11,4,1.89,7.79,4.47,12.29,5.32.15,2,2.58,1.06,3.25,2.42l-.14,1.12h0c-2.28-.21-3.65.74-4,3.07h0c-3.11,1.5-3.16,4.23-2.87,7.11-.55,6.2-5.44,8-10.15,9.91-4.93.1-9.85-.06-14.79.78-3,.5-6.26.87-9.2-.8h0c-.35-2.63-1.81-4.88-2.17-7.6-1-7.18-2.48-14.29-3.78-21.43.14-1.64-.14-3.48.5-4.89C128.71,210.62,127.84,206.43,125.74,202.25Z" transform="translate(-11.84 -26.99)"/><path class="cls-1" d="M207.09,175c-6.59-1.81-13.08-4-20.1-4.21a13.41,13.41,0,0,1,12.1-1c6.5,2.5,12.74.63,19,0,2.56-.23,3.53-2.1,2.42-4.76-.75-1.82-2.62-3.08-2.51-5.29h.29l.27.12c3.86.31,8.11,1,9.76-3.7,1.26-3.55,1-7.3-2.23-10.1-.14-1.49-.18-2.92,1.94-2.91,2.63.73,3.35,4.16,6.72,4.28,1.86.07,2.56,5.28.93,6.51-3.9,2.93-5.18,8.38-10.39,10.2,3,.84,5.61,1.93,7.55-1.28,1.47-2.43,2.92-1.18,4.27.24l-.88,2c-1.92,1.9-1.6,3.89-.25,5.93,0,1.66.09,3.31.14,5-3.07,5.57.47,10.69,1.07,16,1,.83.83,2,.78,3-.12.1-.37.25-.35.3a4.86,4.86,0,0,0,.4.7,4.81,4.81,0,0,1,.1.84V199c-6.74-.59-13.25,1.1-19.84,2v-2c3.63-6.11,9.74-.57,14.94-2.89-5.28-2.41-10.13-2-15-2v-2c1-4.4,2.33-8.82-.81-13C215.41,174.17,211.83,173.14,207.09,175Z" transform="translate(-11.84 -26.99)"/><path class="cls-17" d="M202.18,219.84v-.68c1.69-2.15-1.43-3.13-1.19-4.93-.38-2.11,1.41-4.76-1.55-6.22v-1.9c.1-.1.29-.21.28-.3a4.68,4.68,0,0,0-.21-.73,153.17,153.17,0,0,1,.27-20.88c2.2-1.19,1-3.32,1.39-5l0-.11c1.08,0,2.26.16,2.81-1.15h0a2,2,0,0,0,2.09-.76A5.26,5.26,0,0,1,207,177l7,.15c1.44,1,.83,2.68,1.46,3.94h-.34c-1.49,3-1.7,6,.17,9l.4,1c-.06.14-.21.31-.17.41a5.73,5.73,0,0,0,.45.75l-.27,8.67c-1,.25-2.84-.25-2.88.91-.07,1.84,1.9.91,3,1.28a2.55,2.55,0,0,1,.3,1c.78,3.37,3.65,2.25,5.25,1.75,3-1,5.83-2.8,8.72-4.28l3-.1,1.8.7a1.24,1.24,0,0,1,.12.8l-.79,1.13-3.29,4.81H231a12.09,12.09,0,0,0-6.26,3.26,1.11,1.11,0,0,0-.7.64c-1.42.29-2.76.73-3.48,2.16l-.21-.16-.22.13-1,.24-2.33.8-.24-.13-.11.31-1.57.7-.4-.06-.24.35h-.11l-1.5.78C209.09,218.42,205.9,220.57,202.18,219.84Z" transform="translate(-11.84 -26.99)"/><path class="cls-6" d="M163.09,170.23,162,169.09c.13-1.13-.16-2.43,1.25-3,3.26,1.82,6.83,1.57,10.13.77,8.61-2.07,17.11-4.58,25.66-6.92,1.43.17,2.9.68,4.11-.61.88-.14,1.75-.29,2.16-1.24,1.5-.06,2.76.22,2.94,2-.62,2.44-2.72,2.56-4.65,3-10.43,2.43-21,4.53-31.23,7.52C168.88,171.67,166.2,168.5,163.09,170.23Z" transform="translate(-11.84 -26.99)"/><path class="cls-6" d="M125,219.17c-10.68,11.62-22.92,10.71-35.92,4.55a26.1,26.1,0,0,0-2.81-1c-.52-1.5-1.4-2.63-3.19-2.63h0l-1-.87c0-.74,0-1.48.07-2.22,4.28.54,6.79,4.3,10.8,5.65,16.45,5.54,27.77,1,32.4-13.57C127.16,212.51,124.09,215.78,125,219.17Z" transform="translate(-11.84 -26.99)"/><path class="cls-16" d="M173.17,228c-.67-1.36-3.1-.37-3.25-2.43l.17-2.35c4.26,1.21,8.3,3.3,12.88,3.15a7.41,7.41,0,0,0,6.89-4.83c1.14-2.94-2.14-3.52-3.94-4.76-.67-.46-1.28-1-1.92-1.5l.09-.16c5.26.92,9.42,5,8.68,8.43-.79,3.71-6.78,7.11-11.33,6.3-2.43-.43-4.82-1.14-7.23-1.72Z" transform="translate(-11.84 -26.99)"/><path class="cls-6" d="M220.09,214.92l.22-.13.21.16c1.43-.29,2.86-.58,3.48-2.16a1.11,1.11,0,0,1,.7-.64c2.67,0,5.27-.06,6.26-3.26h-.07c1.21.31,2.15-.38,3.15-.85l.28.31-1.14,2.74-4.1,3a87.46,87.46,0,0,1-19.47,8.34c-3.15.91-5.93,1.18-7.43-2.53,3.72.73,6.93-1.42,10.43-1.88l1.5-.78h.11a3.07,3.07,0,0,0,.64-.29l1.56-.7.36-.18,2.33-.8C219.63,215.89,219.9,215.55,220.09,214.92Z" transform="translate(-11.84 -26.99)"/><path class="cls-10" d="M146.09,185a110.13,110.13,0,0,1,18.15-1c5.21-.08,5.35-.3,3-4.78-.69-1.3-1.36-2.61-2-3.91A2.64,2.64,0,0,1,168,177c2.29,6.69,7.86,7.55,13.78,8.24,4,.46,7.93,1.65,8.55,6.72a1.53,1.53,0,0,1-.69.2c-3.17-4.32-7.58-5.58-12.58-6.27-12.37-1.75-24.53-.28-36.7,1.67l-.51-.65a2.59,2.59,0,0,0,.21-.77l1-.14,1.35-.75,1.65-.11Z" transform="translate(-11.84 -26.99)"/><path class="cls-16" d="M189.56,192.09a1.53,1.53,0,0,0,.69-.2,8.43,8.43,0,0,1-1.48,10,37.58,37.58,0,0,1-4.84,4.93c-3.89,3-4.65,5.65.13,8.37l-.08.11a27.8,27.8,0,0,1-2.86-.72c-7-2.49-7-2.64-1.83-7.93C183.5,202.37,188.93,198.88,189.56,192.09Z" transform="translate(-11.84 -26.99)"/><path class="cls-12" d="M208.26,160.09c-.18-1.83-1.44-2.11-2.94-2l.09-1.12c1-1.43,0-1.66-1.11-1.82l-.6-1.63c2.43.38,3-1.22,3.41-3.11.83-3.85,1.59-7.72,2.62-11.52.66-2.42,1.69-4.71-.65-6.77h0l3.3.23c.91,1.87-.27,3.5-.6,5.24-1.1,5.81-4.61,11.39-1.83,17.6l.2,1.9c-1.28,1,.23,2-.08,3Z" transform="translate(-11.84 -26.99)"/><path class="cls-1" d="M82.09,217c0,.74,0,1.48-.07,2.22a8.31,8.31,0,0,1,.07.86c-2-.74-4,1.67-6,0a2,2,0,0,0-1-2c0-2-1.73-2.28-3-3,0-1.09.18-2.27-1-3a6.8,6.8,0,0,1-1-4c.46-.88,1.33-1,2.16-1.18v.18c0,2.33,0,4.64,3.14,4.91l.82.92.92,1.16h0l.92,1,2,1.09,1.09-.11h0c0,.71.33,1,1,1Z" transform="translate(-11.84 -26.99)"/><path class="cls-11" d="M126.15,220.09c1.3,7.14,2.82,14.25,3.78,21.43.36,2.72,1.82,5,2.17,7.6-3.76-1.53-3.61-5.08-4-8.19-1-7-2.78-13.84-3-20.84Z" transform="translate(-11.84 -26.99)"/><path class="cls-6" d="M210.09,160.09c.31-1-1.2-2,.08-3,1.69-.13,3.5.23,4.88-1.21l2-.24,1.16-.45a1.29,1.29,0,0,0,.83-.2,1.91,1.91,0,0,0,2.1-.74h0l2.49-.4c1.32.54,1.38,1.69,1.39,2.86-2.22.93-5,.69-6.47,3.15l-.27-.12h-.23Z" transform="translate(-11.84 -26.99)"/><path class="cls-12" d="M199.74,184.2a151.72,151.72,0,0,0-.28,20.89c0,.34-.05.68-.07,1V208c.24,2,.49,4,.73,6l-.27.25c-1.51-1.05-1.76-2.64-1.76-4.36V182c0-1.39.13-2.68,1.72-3.2l.27.3C200,180.82,198.75,182.43,199.74,184.2Z" transform="translate(-11.84 -26.99)"/><path class="cls-11" d="M132.09,249.09c2.94,1.67,6.21,1.3,9.2.8,4.94-.84,9.86-.68,14.79-.78-3.2,2.11-6.83,1.93-10.44,2s-6.93-.43-10.38.62C133.31,252.36,132.09,251.2,132.09,249.09Z" transform="translate(-11.84 -26.99)"/><path class="cls-9" d="M229.09,214l4.1-3,3,1.06c-1.15,3.72-4.06,5.93-7,8.12Z" transform="translate(-11.84 -26.99)"/><path class="cls-1" d="M72.09,225.09l-8-8,8,1v2C70,221.75,75.09,223.43,72.09,225.09Z" transform="translate(-11.84 -26.99)"/><path class="cls-12" d="M215.43,181.09c-.63-1.26,0-3-1.46-3.94-2.29-2-4.63-1.41-7-.15a5.26,5.26,0,0,0-.88.17A1.86,1.86,0,0,0,204,178h0l-2.7.32-.39-.38c1.49-2.18,4.06-2.1,6.19-2.92,4.73-1.86,8.31-.83,10.31,4.14l-.4,0Z" transform="translate(-11.84 -26.99)"/><path class="cls-7" d="M126.15,220.09h-1.06a7,7,0,0,1-.06-.91c-.94-3.4,2.13-6.67.28-10.09-.08-.33-.15-.65-.23-1V207h0c.14-.07.41-.16.4-.21a4.45,4.45,0,0,0-.3-.71l-.24-2,.15-2a2.34,2.34,0,0,0,.63.21c2.09,4.18,3,8.37.9,12.92C126,216.58,126.29,218.42,126.15,220.09Z" transform="translate(-11.84 -26.99)"/><path class="cls-1" d="M208,167.09c-1.12-.26-3.32.73-3.48-1.34-.18-2.28,2.08-1.38,3.38-1.66a2,2,0,0,1,.49,0c1.73,0,4.54-2.42,4.9.59C213.53,167.09,210.34,167.15,208,167.09Z" transform="translate(-11.84 -26.99)"/><path class="cls-9" d="M227.2,222.14a28.14,28.14,0,0,1-6.22,5.45C220.83,223.32,223.09,221.3,227.2,222.14Z" transform="translate(-11.84 -26.99)"/><path class="cls-11" d="M166.23,239.19c-.29-2.88-.24-5.61,2.87-7.11C169,234.78,169.34,237.69,166.23,239.19Z" transform="translate(-11.84 -26.99)"/><path class="cls-9" d="M200.3,228.41a1.32,1.32,0,0,1,1.79-1.11c.87.16,1.6.69,1.59,1.59,0,1.1-1,1.15-1.79,1.11a1.45,1.45,0,0,1-1.59-1.29A1.5,1.5,0,0,1,200.3,228.41Z" transform="translate(-11.84 -26.99)"/><path class="cls-9" d="M83.09,220.09c1.8,0,2.68,1.1,3.24,2.62C82.68,225,84,221.23,83.09,220.09Z" transform="translate(-11.84 -26.99)"/><path class="cls-12" d="M201,214.23c-.24,1.8,2.88,2.78,1.19,4.93a5.79,5.79,0,0,1-2.28-4.9l.27-.24A4,4,0,0,0,201,214.23Z" transform="translate(-11.84 -26.99)"/><path class="cls-9" d="M72.09,220.09v-2h3a2,2,0,0,1,1,2Z" transform="translate(-11.84 -26.99)"/><path class="cls-11" d="M169.09,232.09c.3-2.33,1.67-3.28,4-3.07C172.27,230.76,171.16,232.09,169.09,232.09Z" transform="translate(-11.84 -26.99)"/><path class="cls-9" d="M212.14,234.21c-.28.94-1.11,1-1.87,1.13C210.33,234,210.23,232.46,212.14,234.21Z" transform="translate(-11.84 -26.99)"/><path class="cls-9" d="M207.47,229.36c.13-.28.19-.7.39-.78s.53.19.81.31c-.12.28-.18.71-.38.79S207.75,229.48,207.47,229.36Z" transform="translate(-11.84 -26.99)"/><path class="cls-11" d="M173.17,228l1,.17L173,229Z" transform="translate(-11.84 -26.99)"/><path class="cls-9" d="M210.34,235.25a.91.91,0,0,1-1,.79.9.9,0,0,1-.22-.06Z" transform="translate(-11.84 -26.99)"/><path class="cls-9" d="M82.09,220.09q0-.42,0-.84l1,.87Z" transform="translate(-11.84 -26.99)"/><path class="cls-12" d="M199.86,178.84l1-.92.39.38a2.91,2.91,0,0,0-.11.83l-.07.05a3.35,3.35,0,0,0-1,0Z" transform="translate(-11.84 -26.99)"/><path class="cls-13" d="M60.21,110.82h1l7.88,3.7c-.06,1.43,1.82,1.34,2,2.56a9.05,9.05,0,0,0-1.14.4c.17.84.82.4,1.3.42h0c-.58,1.57,1.56,3-.09,5-1.7-2-4.45-3.35-4.67-5.87-.3-3.4-2.08-3.83-4.51-3.31C58.26,114.49,59.5,112.58,60.21,110.82Z" transform="translate(-11.84 -26.99)"/><path class="cls-10" d="M71.14,117.09c-.2-1.22-2.08-1.13-2-2.56,2-.35,3.49.7,4.71,2,1.84,1.91,3.9,2,6.2,1.3l-2,2.26-1.43.19c-2.21.12-3.3-2.29-5.4-2.41h0A1.24,1.24,0,0,0,71.14,117.09Z" transform="translate(-11.84 -26.99)"/><path class="cls-4" d="M63.85,75,66,72.86C66.09,74.39,65.38,75.09,63.85,75Z" transform="translate(-11.84 -26.99)"/><path class="cls-1" d="M190.15,61.09c.83-.12,1.66-.33,1.85-1.27a10.24,10.24,0,0,1,5.15-7.58c.81-.13,1.58-.31,1.89-1.22h0c3.74-3.7,3.87-4.6,1-6.91h0c-.61-2-.54-4.26-1.91-6,.12-.38.24-.76.35-1.14,4.15.62,7.89,2.37,11.61,4.12a12.49,12.49,0,0,0-1.1,1.59c-1.26,2.58-.64,5.82-4.13,7.71-1.66.9.51,2.53,2.35,2.61l1.88,1.19c.63,1,.82,2.33,2.07,2.89h0c-.66,3.93-1.31,7.72-7,6.11-3-.87-3.4,2.18-4.23,3.84-2.06,4.13.3,7.76,2.39,11,1.28,2,3.73,1.53,5.69.17.73-1.09,2-1.56,2.85-.85,1,.86-1.14,1.59-.75,2.71-1,.75-3,.91-2.57,2.53,1.6,6.24,0,12.34-.51,18.49-3.15.46-5.89,1.49-6.93,4.91l-.25.25h-.36l-1.4.85-1,.68c-.72-2.22-2-1.57-3.43-.74-5.88,3.27-11.79,6.5-17.74,9.63-1,.54-2.3,2-3.47.56-.93-1.15.05-2.39.56-3.64,1.49-3.63,2.92-7.32,3.08-11.33,2-2.77,3.26-5.77,2.8-9.29l-.07.13c1.26-.47,1.17-1.53,1.13-2.57l-.21-.29a3,3,0,0,0,3-2.82c.36-4.61,2.83-8.43,4.21-12.64.8-2.47,2.81-5,.92-7.82C189.39,65.26,189.39,63,190.15,61.09Z" transform="translate(-11.84 -26.99)"/><path class="cls-8" d="M176.6,101.91c-.35,4-2,7.62-3.62,11.17-.57,1.23-1.6,2.42-.73,3.61,1.1,1.5,2.44.12,3.49-.4,6.09-2.84,12.15-5.79,18.18-8.77,1.52-.76,2.78-1.35,3.39.9L171.43,121a.82.82,0,0,0-.81.42c-1-.21-3.91,2.08-2.33-1.69l8.12-19.28Z" transform="translate(-11.84 -26.99)"/><path class="cls-8" d="M187.9,66.91c1.89,2.85-.12,5.35-.92,7.82-1.38,4.21-3.85,8-4.21,12.64a3,3,0,0,1-3,2.82A203.64,203.64,0,0,1,187.9,66.91Z" transform="translate(-11.84 -26.99)"/><path class="cls-12" d="M160.24,132.09a10.47,10.47,0,0,1,4.51-2.17c2.53,1.6,5.37,1,8.1,1.13-2.3,2.21-5.7-.22-8,1.89-1.49.77-1.88,1.77-.68,3.12a2.61,2.61,0,0,0,1.92,2l1,.33c-.88.91-2,.61-3.08.7h0l-1.1-1c-1.1-.73-.9-1.91-1-3C162.36,133.58,160.73,133.16,160.24,132.09Z" transform="translate(-11.84 -26.99)"/><path class="cls-8" d="M172.85,131.09c-2.73-.17-5.57.47-8.1-1.13l2.34-1.82c2.16-.29,4.47,0,6-2.13l1-.15a2.88,2.88,0,0,0,.92.13l.14.14c-.48,1.85.74,2.81,2,3.79C175.7,130.35,174,129.81,172.85,131.09Z" transform="translate(-11.84 -26.99)"/><path class="cls-8" d="M200.09,106c1-3.42,3.78-4.45,6.93-4.91l2.22.12-4.6,2.91-2.55,1.27-1.1.73A6.94,6.94,0,0,1,200.09,106Z" transform="translate(-11.84 -26.99)"/><path class="cls-8" d="M188.88,117.86a20.8,20.8,0,0,1,6.21-3.24l2,.1a1.68,1.68,0,0,1,.17.49c-.11.65-.22,1.3-.32,2l-7.77,1Z" transform="translate(-11.84 -26.99)"/><path class="cls-11" d="M176.14,102.21l-.24-1.45a19.31,19.31,0,0,1,3-7.84C179.4,96.44,178.15,99.44,176.14,102.21Z" transform="translate(-11.84 -26.99)"/><path class="cls-8" d="M160.24,132.09c.49,1.06,2.12,1.48,1.69,3-1.34.13-3.36-2.41-3.89,1l-1.18,0a2,2,0,0,1-.77-2l.36-.5c.77-.61,2-.37,2.5-1.49Z" transform="translate(-11.84 -26.99)"/><path class="cls-8" d="M175.15,124.21l6.44-2.82a4.25,4.25,0,0,0,.5.7c-1.51,2.75-4.92,2.2-7,4L175,126Z" transform="translate(-11.84 -26.99)"/><path class="cls-8" d="M181.59,121.39a8.09,8.09,0,0,1,4.62-1.69l-.12.39c-.75,1.83-2.29,2.1-4,2A4.25,4.25,0,0,1,181.59,121.39Z" transform="translate(-11.84 -26.99)"/><path class="cls-8" d="M186.74,119.09a2.46,2.46,0,0,1,2.14-1.26l.26.29a3,3,0,0,1-2.27,1.87A.79.79,0,0,0,186.74,119.09Z" transform="translate(-11.84 -26.99)"/><path class="cls-11" d="M180,90.48c0,1,.13,2.1-1.13,2.57C179,92.09,178.84,91,180,90.48Z" transform="translate(-11.84 -26.99)"/><path class="cls-15" d="M201,106.09l1.1-.73Z" transform="translate(-11.84 -26.99)"/><path class="cls-8" d="M198.09,107.09l1.38-.83Z" transform="translate(-11.84 -26.99)"/><path class="cls-17" d="M217.09,155.64l-2.08.22c-1.54-1.32-3.36-.62-5.07-.7-2.78-6.21.73-11.79,1.83-17.6.33-1.74,1.51-3.37.6-5.24.93-.64.63-1.69.84-2.56,1.24.06,1.69-.85,2-1.77,2-5.63,3.9-11.27,5.85-16.91h0a1.79,1.79,0,0,0,2-1h0a19.26,19.26,0,0,0,7.93-2.84l1.07-.27c.85.13,1.73.32,2.06-.84h0l9.94.06a1.94,1.94,0,0,0,1.87,1.92l2.24,3.17c.24.59.49,1.18.74,1.77-1.66,2.77-.68,4.69,1.94,6.09a2.54,2.54,0,0,1,.3.85,2,2,0,0,0,.73,2.1,2.33,2.33,0,0,1,.3.81l.84,1.22a2.72,2.72,0,0,1,.2.63c-1.14,3.37,2,5.47,2.51,8.33a3.79,3.79,0,0,0-1.57,4L253,138c-4,.34-8.16,2.32-11.88-.95h0l-1.12-.92-1.89-.12c-1.64-1.43-2.61-1-3,1.08a1,1,0,0,1-.72.22c-1.24-.18-2.5-.47-3.27.94-7.55.66-9,5.43-8,11.87-1.27,1.1-1.18,2.81-1.85,4.18h0a1.74,1.74,0,0,0-2.1.74,1.29,1.29,0,0,1-.83.2Zm17-27.79c0-3.4-1.48-6-4-8.75-2,2.88-2,5.87-2.4,8.73-.23,1.58-1.38,3.61.24,4.56a3.68,3.68,0,0,0,4.7-1.32C233.4,130.09,234.31,129.21,234.09,127.85Z" transform="translate(-11.84 -26.99)"/><path class="cls-6" d="M205.09,125c1.58,1.72,1.14,4.14,2.09,6.08a2,2,0,0,0-.1.68L191.24,153l-.15,1.2c-4,.63-4.74-.82-2.69-4.12a1.38,1.38,0,0,0,.66-.58l4.65-5.51a5.35,5.35,0,0,0,.45-.5l1.17-1.38.76-.8a.48.48,0,0,1,.52-.33c1.58-.25,1.49-1.48,1.54-2.63l.94-1.24a2.86,2.86,0,0,0,1.93-2.17V135l1-1.37a.42.42,0,0,1,.07-.55,10.06,10.06,0,0,0,3-7.85Z" transform="translate(-11.84 -26.99)"/><path class="cls-12" d="M221.09,111.09c-2,5.64-3.88,11.28-5.85,16.91-.33.92-.78,1.83-2,1.77,1.53-4.79,3-9.59,4.62-14.35C218.44,113.64,218.53,111.4,221.09,111.09Z" transform="translate(-11.84 -26.99)"/><path class="cls-10" d="M198.38,119.9c.81,1.29,1.71,2.29,3.49,2.19A2.91,2.91,0,0,1,205.1,125v.28l-1.1-.17c-2-2.77-4.65-.57-7-1l.14-2v-2Z" transform="translate(-11.84 -26.99)"/><path class="cls-11" d="M212.78,106A29.7,29.7,0,0,1,223,101.22C220.49,104.77,217,106.09,212.78,106Z" transform="translate(-11.84 -26.99)"/><path class="cls-10" d="M244.09,106.22l-10-.06c4.17-.83,8.42-4.12,12.38.46-.14.17-.29.33-.43.49Z" transform="translate(-11.84 -26.99)"/><path class="cls-12" d="M231,107.27a19,19,0,0,1-7.92,2.82C225.31,108,227.79,106.62,231,107.27Z" transform="translate(-11.84 -26.99)"/><path class="cls-18" d="M250.84,119.17c-2.62-1.4-3.6-3.32-1.94-6.09C249,115.29,251.46,116.74,250.84,119.17Z" transform="translate(-11.84 -26.99)"/><path class="cls-10" d="M248.16,111.31l-2.24-3.17a6.18,6.18,0,0,1,.14-1c.14-.16.29-.32.43-.49C248.6,107.64,248.32,109.49,248.16,111.31Z" transform="translate(-11.84 -26.99)"/><path class="cls-10" d="M196.91,117.17c.1-.66.21-1.31.32-2,1.48,1,.75,2.57,1,3.89h-1.14A18.24,18.24,0,0,0,196.91,117.17Z" transform="translate(-11.84 -26.99)"/><path class="cls-18" d="M251.88,122.09a2,2,0,0,1-.74-2.09C252.27,120.41,252.09,121.25,251.88,122.09Z" transform="translate(-11.84 -26.99)"/><path class="cls-12" d="M223.09,110.09a1.79,1.79,0,0,1-2,1C221.38,110,222.18,109.92,223.09,110.09Z" transform="translate(-11.84 -26.99)"/><path class="cls-12" d="M207.09,131.71a2,2,0,0,1,.1-.68,2,2,0,0,1,1.9,1.06h0Z" transform="translate(-11.84 -26.99)"/><path class="cls-10" d="M234.14,106.16c-.33,1.16-1.21,1-2.06.84C232.48,106,233.25,106,234.14,106.16Z" transform="translate(-11.84 -26.99)"/><path class="cls-8" d="M197.09,119.09h1.09c.06.27.11.54.16.8l-1.19.2C197.14,119.79,197.09,119.44,197.09,119.09Z" transform="translate(-11.84 -26.99)"/><path class="cls-18" d="M253,124.14l-.84-1.22C252.78,123.09,253.16,123.44,253,124.14Z" transform="translate(-11.84 -26.99)"/><path class="cls-4" d="M209.09,54.19,207.27,53c2.9-3.4,3.7-7.61,4.51-11.81L212,41c7,3.45,14,6.76,19.76,12.12,1,3.38,6,5.33,3.52,9.94-1.52,0-2.74.07-3.27-2-.76-3-3.58-3.77-6.21-3.61a64.65,64.65,0,0,0-8.74,1.62c.78-2-.17-5.68,4.41-3.39,1.6.79,1.68-1.54.81-2.68-1.62-2.15-4.1-2.73-6.61-2.76-1.54,0-1.7,1.42-1.61,2.6.18,2.45-1.11,5.65,3,6.25l-3,7h0a2.54,2.54,0,0,0-1.74,3.13c.54,2.18,2.14,4.76-1.92,5-2.44.15-4.24,3.09-6.12,2.41-3-1.07-2.75-4.7-2.88-7.28a3.8,3.8,0,0,1,3.59-4,2.81,2.81,0,0,1,.41,0c5.79,0,7.73-3,5.67-8.31h0C211.25,55.54,211.26,54.09,209.09,54.19Z" transform="translate(-11.84 -26.99)"/><path class="cls-11" d="M214.09,66.09l3-7h0a65.44,65.44,0,0,1,8.68-1.65c2.63-.16,5.45.58,6.21,3.61.53,2.09,1.75,2.07,3.27,2,2.4.53,2.56-1.82,3.71-2.9l2.43,3.69-.3.25c-3.25,1.07-6.16,5.44-10,1-.05-1-.1-2-.14-3L230.09,61c-.75-1.13-1.92-1-3-1-4.68-1.71-8.42-1-10.48,4.06C216.16,65.16,215.55,66.2,214.09,66.09Z" transform="translate(-11.84 -26.99)"/><path class="cls-10" d="M239,60.18c-1.15,1.08-1.31,3.43-3.71,2.9,2.51-4.61-2.53-6.56-3.52-9.94C234.79,54.84,238,56.39,239,60.18Z" transform="translate(-11.84 -26.99)"/><path class="cls-11" d="M252,78c-.84,1-1.8.79-2.81.31-2.74-1.89-6.75,1.45-9.08-2.17,2.68-.57,5.62.94,8.13-1l2.07-.09Z" transform="translate(-11.84 -26.99)"/><path class="cls-10" d="M250.27,75l-2.07.09c-.2-3.29-4.67-4.31-4.21-7.94l.5-.39A23.33,23.33,0,0,1,250.27,75Z" transform="translate(-11.84 -26.99)"/><path class="cls-10" d="M241.42,63.87l1.92,1-.43.41-1.82-1.19Z" transform="translate(-11.84 -26.99)"/><path class="cls-10" d="M243.34,64.86l1.15,1.91-.5.39-1.08-1.89Z" transform="translate(-11.84 -26.99)"/><path class="cls-10" d="M198.89,31.09c.16-.69.33-1.38.5-2.07C200.09,29.9,200.2,30.65,198.89,31.09Z" transform="translate(-11.84 -26.99)"/><path class="cls-2" d="M242.91,65.27,244,67.16c-.46,3.63,4,4.65,4.21,7.94-2.51,2-5.45.44-8.13,1h0c-5.55-5.48-12.63-4.65-17,2l-.37.06h-.37a32.29,32.29,0,0,1-12.24,1.93c-.39-1.12,1.73-1.85.75-2.71-.8-.71-2.12-.24-2.84.85-1.25-1.63-.16-1.85,1.18-2.06,6.32-1,6.3-1,5.12-7.09a21.36,21.36,0,0,1-.21-3h0c1.45.11,2.06-.93,2.5-2,2.06-5.09,5.8-5.77,10.48-4.06.81,2.11-2.08,7.15,4,5.06,3.8,4.43,6.71.06,10-1Z" transform="translate(-11.84 -26.99)"/><path class="cls-11" d="M210.09,80.09a32.36,32.36,0,0,0,12.28-2c-1.66,4.35-5.87,3.12-9,3.68s-3.75,1.69-3.61,4.52c.15,3.34,1,6.53,0,10.14-.86,3,2.92.88,4.4,1.67-1.3,1.58-3.18,2.21-4.94,3H207c.5-6.15,2.11-12.25.51-18.49C207.09,81,209.09,80.79,210.09,80.09Z" transform="translate(-11.84 -26.99)"/><path class="cls-11" d="M223.09,78.09c4.34-6.63,11.42-7.46,17-2C234,73.27,228.52,75.35,223.09,78.09Z" transform="translate(-11.84 -26.99)"/><path class="cls-11" d="M233.22,88.19c-3.06,2.2-6.08,4.48-10,4.77A15.7,15.7,0,0,1,233.22,88.19Z" transform="translate(-11.84 -26.99)"/><path class="cls-11" d="M221.09,94.15c-1,2.09-2.84,2.8-5,3C216.74,94.46,218.93,94.33,221.09,94.15Z" transform="translate(-11.84 -26.99)"/><path class="cls-11" d="M216.16,97.09c-.34,1-1.17,1.11-2.06,1.07C214.45,97.18,215.28,97.09,216.16,97.09Z" transform="translate(-11.84 -26.99)"/><path class="cls-11" d="M234.93,87.09c-.18,1-1,1.11-1.79,1.19C233.32,87.24,234.16,87.2,234.93,87.09Z" transform="translate(-11.84 -26.99)"/><path class="cls-17" d="M263,154.85c1.36,1.69,2.44,1.75,3.11-.54,3-.74,6.06-.32,9.09-.36a2.36,2.36,0,0,1,.91.35c2.5,4.64,2.27,10.37,0,13.84-1.71,2.62.89,8.89-5.47,8.25a5,5,0,0,1,0,1.88c-1.31,3.25,1.95,5.7,1.48,8.77v.05l-.95.93-.06.07-1,1a26.63,26.63,0,0,1-13.13,10h-7c-1.44,0-3-.3-2.79-2,1-9.86-3.1-19.37-2-29.18.24-2.21,2-4.23.88-6.67l2-1.45,1.71-.35c1.2,5.14,2.33,5.76,7,3.52a8.93,8.93,0,0,1,3.33-.87c.87-.07,1.71-.34,1.73-1.36,0-1.34-1-1.52-2.05-1.55-1.32,0-2.76.3-3.94-.11-2-.7.44-1.24.27-2,.94-.74,2.47-.62,3-2L259,155Zm-6.56,10.4a1.13,1.13,0,0,0-1.25.94l-.91,1.9c-2.38,3.45-.6,7.33-1.1,11a2.45,2.45,0,0,0-1,.17c-1.75,1.2-4.72,13.63-3.54,15.23a4.22,4.22,0,0,0,2.07,1.29c4.09,1.31,7.21-1.43,10.63-2.77.88-.35.87-1.77.53-2.74-.26-.75-.8-.68-1.53-.29-2.52,1.32-2.55,1.27-3.29-1.94l-1-1v-.75l1.11-.12a6,6,0,0,0,5-5.91c1.31-.65.26-2.63,1.78-3.16,2.57,0,3.32-1.94,3.84-3.82s.3-4.2,1.07-6.27c.39-1,1.8-2.53.23-3.49s-2.29.51-3.11,1.6c-.35.47-1.06.67-1.61,1C261.91,164.22,259.09,165.34,256.41,165.25Zm5.87,21.22c.47,1.9.6,3.53,2.69,3.33a1.38,1.38,0,0,0,.87-1C265.77,186.88,264.38,186.57,262.28,186.47Zm-11.51-17.28a1.61,1.61,0,0,0-1.4-1.7c-.73-.13-1.15.51-1.18,1.21s-.15,1.76,1,1.91C250.09,170.73,250.55,170.09,250.77,169.19Zm22.16-10.1c-.53-.38-.86-.79-1.19-.8a1.53,1.53,0,0,0-1.12.54c-.22.79.42,1.1,1.07,1C272.09,159.86,272.38,159.47,272.93,159.09Z" transform="translate(-11.84 -26.99)"/><path class="cls-13" d="M246.09,161.18c1.11,2.44-.64,4.46-.88,6.67-1.12,9.81,2.93,19.32,2,29.18-.17,1.75,1.35,2,2.79,2h7c-5,2.51-9.95,5.82-15.94,2.73a.8.8,0,0,0-.24-.56c.06-.73.11-1.46.17-2.19,3.17,1.46,4.58.48,3.61-2.92-.61-2.15-.33-4.27-.48-6.4-.23-3.32.54-6.74-1.22-10-.43,6.31-1.31,12.51-2,18.74-2.69-8.15-2.54-16.63-2.83-25C237.76,164.72,237.87,164.71,246.09,161.18Z" transform="translate(-11.84 -26.99)"/><path class="cls-13" d="M272.09,187.09c.47-3.07-2.79-5.52-1.48-8.77a5,5,0,0,0,0-1.88c6.36.64,3.76-5.63,5.47-8.25,2.28-3.47,2.51-9.2,0-13.84,3.09-.65,3.95,1.8,5.18,3.72,1.55,2.9.54,6.06,1,9.07-.62,2.56-1.24,5.13-1.85,7.69a3.79,3.79,0,0,0-1.32,3.26C276.73,181.09,275.4,184.81,272.09,187.09Z" transform="translate(-11.84 -26.99)"/><path class="cls-7" d="M279.09,178.09a3.83,3.83,0,0,1,1.31-3.3l1.84,1.58a5.7,5.7,0,0,1-1.35,3.72Z" transform="translate(-11.84 -26.99)"/><path class="cls-13" d="M270.09,189.09l.93-1Z" transform="translate(-11.84 -26.99)"/><path class="cls-13" d="M271.09,188l1-.94Z" transform="translate(-11.84 -26.99)"/><path class="cls-13" d="M14.46,189.93q-.27-12.48-.55-25c.59-3-1.25-6.51,2.06-8.85,2.38-.45,3.65,1.32,5.18,2.59a10,10,0,0,1,2,6.2c.18,6.11-.76,12.37,1.28,18.68,3.6-2,2.65-5,2.65-7.6q2.07-5.44,4.16-10.9l4.92-.18,5.93,2.22.94,1c1.09,5.32.81,10.89,3,16l.75,1.48c.15,1.24-.16,3,1.57,3.09,1.23.08,1.36-1.57,1.74-2.57a13.76,13.76,0,0,0,.45-2c1.18-3,2.28-6,3.58-9,1.47-3.38,3.69-5.76,7.87-4.85h-.07c.73,2.53,2.72,3.47,5,4h0l2.26,4.85c-2.8,8.08-6,16-8.42,24.23-1.69,5.8-2.88,6.17-8.61,4.17a23.75,23.75,0,0,1-3-1.57c-2.06-2.93-5.81-3.61-8.16-6.14-1.94-1.91-1.14-5.29-3.71-6.86-.35-2.51.68-5.35-1.92-7.46a9.76,9.76,0,0,0-2.32,7.28c.3,4.14-2,5-5.27,4.31-4.72-1-9.16-2.73-12.7-6.23C14.88,190.52,14.67,190.22,14.46,189.93Z" transform="translate(-11.84 -26.99)"/><path class="cls-12" d="M27.09,176c0,2.65,1,5.61-2.65,7.6-2-6.31-1.1-12.57-1.28-18.68a10,10,0,0,0-2-6.2c3.65.39,4.55,2.88,4.87,6C26.4,168.5,25,172.41,27.09,176Z" transform="translate(-11.84 -26.99)"/><path class="cls-1" d="M43.09,168.09l-1-1c-1.52-2.5.51-8.51-6-6-1.17-3.24-1.11-6.6-1-10,.7-.17,1.67-.21,1.43-1.24-.09-.36-.93-.55-1.43-.82V139c1.09-.77.89-1.92.86-3v-3c-2.51-2.37,2.34-4.58.16-7V124c2.33-.19,3,1.19,2.92,3.19-.13,4.94-2.42,10,.92,14.73,1.86,3.1,3.73,6.19,7,8.06,5,3.25,7.6,3.07,13.12-.89,4.08,4.14,10.86,2.56,14.8,7,3.46,3.26,6.81,6.72,12,7.18a2,2,0,0,0,1.91,1.87c2.6,4.35,7.67,3,11.34,4.92,1.79,4.45,2.39,9.38,5.75,13.09-1.78,1.56-3.56.43-5.08,1L98.09,183c-.3-1.1,1.45-2.37.32-3-.93-.55-2.48,0-3.35,1.14l-3-.2c-.29-.42-.61-.46-.94,0H85c-.34-.4-.65-.35-.93.06l-3,.11c-.34-.68-.78-1.58-1.57-1.17-.41.21-.33,1.36-.47,2.09l-.07.07a1.85,1.85,0,0,0-1.89,1.81v.1l.06,1.15h0l-2.06,0c-1,.31-3.45-.61-1.87,2.07l-.3,1.93c-1.52.1-2.75-.19-2.83-2.07l1.34-4.9a2.08,2.08,0,0,0,2-2.13c0-.05,0-.09,0-.14-.08-1-1.24-.66-2-.82l-.38-.06c0-2.72-1.09-4.56-4.08-4.74h0c-.11-3.32-2.68-3.53-5-4H62c-2.09-4-5.31-2.3-6.77-.27-3,4.14-6.45,8.35-6.07,14.06-2.33-.73-1.62-2.88-2.24-4.48C45.44,175.81,47.93,170.7,43.09,168.09Z" transform="translate(-11.84 -26.99)"/><path class="cls-9" d="M36.09,161.09c6.51-2.47,4.48,3.54,6,6l-6-2.21Z" transform="translate(-11.84 -26.99)"/><path class="cls-9" d="M35.17,149.09c.5.27,1.34.46,1.43.82.24,1-.73,1.07-1.43,1.24Z" transform="translate(-11.84 -26.99)"/><path class="cls-9" d="M36.09,136.09c0,1.09.23,2.24-.86,3C35.09,138,35,136.84,36.09,136.09Z" transform="translate(-11.84 -26.99)"/><path class="cls-9" d="M36.09,133.09v1a4.89,4.89,0,0,1-.35-.73Z" transform="translate(-11.84 -26.99)"/><path class="cls-6" d="M71.38,182.09c-.45,1.63-.89,3.27-1.34,4.9a35.17,35.17,0,0,0-5,14.1l-1,3-.09,1a1.27,1.27,0,0,0-.06.72,3.53,3.53,0,0,0-1.72,3.28L61,210.9l-4.69,2.26-.72-1.52c-2.35-2.48-6.32-1.83-8.6-4.44A2.44,2.44,0,0,1,49.17,206a23.75,23.75,0,0,0,3,1.57c5.73,2,6.92,1.63,8.61-4.17,2.43-8.26,5.65-16.14,8.45-24.26l1.8-.18.38.06Z" transform="translate(-11.84 -26.99)"/><path class="cls-2" d="M61,210.91l1.23-1.82h1.87a2.06,2.06,0,0,1,1,2c.14,1.22-.26,3.13,1.75,2.73s.41-1.73.25-2.73l1-3h2a6.8,6.8,0,0,0,1,4c-1.63,1.65-1.13,2.59,1,3,1.28.73,3,1,3,3h-3l-8-1C61.36,215.88,60.91,213.53,61,210.91Z" transform="translate(-11.84 -26.99)"/><path class="cls-17" d="M71.27,117.89c2.1.12,3.19,2.53,5.4,2.41l1.33.88v-.09l1,1h-.07l.18,1.87c-.06,1.5-.12,3,2,3h0c1.37,3-1.88,8,4,9.12a2.06,2.06,0,0,1-1.18,2c-1.71.47-4.28-1.09-4.84,2.06a.43.43,0,0,1-.6.12h0c-3.75-.69-6.25-5.06-10.72-3.62-.92,1.86,2.32,1.13,1.69,2.92-1.46.76-2.78,1-4.22-.49s-1.55-1.38-2.15,1.44l-2.25-.1c-3-.82-.58-3.39-1.61-5.37-1.79,2.43-5.12,5.21-4.62,6.61,1.61,4.45-1.27,3.26-3.24,3.41-1.81.14-3.62.12-5.43.17h0c.22-2-1-2.15-2.51-2.15-.4-1.43-1.75-2-2.7-2.88-1.83-4.63.06-9.15.39-13.73.28-3.8.49-7.61.73-11.42.28-1.6.57-3.2.85-4.8.13-.39.26-.77.4-1.15,1.29-3.79,4.23-3.28,7-2.37,3.45,1.16,6.77,2.71,10.14,4.09-.71,1.76-2,3.67,1.79,2.88,2.43-.52,4.21-.09,4.51,3.31.22,2.52,3,3.92,4.67,5.87C72.83,120.93,70.69,119.46,71.27,117.89Zm-7.18,12.2L66,129a1.14,1.14,0,0,0,1.4-.83l0-.17c.36-3.41-2-5-4.53-6.32-1.64-.85-3.53-1.08-4.77.93-1.48,2.39-2.1,5.43-.62,7.44S61.85,131.84,64.09,130.09Zm12-.18c-.13-1.5-.83-2.56-2.43-2.58a1.27,1.27,0,0,0-1.41,1.13,1.2,1.2,0,0,0,0,.5,3.13,3.13,0,0,0,2.58,2.68c1.06.14,1.14-.93,1.16-1.78Z" transform="translate(-11.84 -26.99)"/><path class="cls-16" d="M40.73,140.2c1,.92,2.3,1.45,2.7,2.88s1.51,1.64,2.52,2.15h0c.22,2.09,2.57,2.21,3.42,3.72A2.71,2.71,0,0,0,47.09,150c-3.27-1.87-5.14-5-7-8.06C40.32,141.38,40.53,140.79,40.73,140.2Z" transform="translate(-11.84 -26.99)"/><path class="cls-12" d="M42.7,110.25c-.28,1.6-.57,3.2-.85,4.8C41,113.24,40.09,111.44,42.7,110.25Z" transform="translate(-11.84 -26.99)"/><path class="cls-12" d="M49.17,206A2.44,2.44,0,0,0,47,207.21l-2.55-1.51c-.74-2.19-4.76-2.48-3.42-5.88C43.36,202.35,47.09,203,49.17,206Z" transform="translate(-11.84 -26.99)"/><path class="cls-3" d="M258.87,149c0,.72,0,1.44-.05,2.16-1.23.72-2.24,1.67-3.81,2-2.58.56.56,1.32.14,2.07l-2.06,1.86h0c-1.21-.23-2.32-.19-3,1.11h0l-2-.11-3-1-.93-1.05c-.29-1.47.61-3.48-1.84-3.95a4.33,4.33,0,0,1-.28-.93c.77-2.38-1.67-5.73,2.17-7.2h-.05c.51,1.18,1.16,1.22,1.92.22h2c.75,1,1.4,1,1.92-.19h0c2,.08,4.15.59,5-2.07h-.08c2.17.05,3.4.91,3.21,3.32C258,146.52,257.76,147.92,258.87,149Z" transform="translate(-11.84 -26.99)"/><path class="cls-7" d="M248.09,144.14h-2l-1.92-.22h.05c-.42-1.45-2.53-2-2.14-3.87,4.07,1.67,7.65.65,10.9-2l1.19-.9c1.32-.57,1.77-1.81,2.32-3,2.89.35,2.65,2,1.6,4-.47,1.75-3.14,1.68-3.17,3.8H255a6.74,6.74,0,0,0-5,2.07h0Z" transform="translate(-11.84 -26.99)"/><path class="cls-4" d="M254.91,141.92c0-2.12,2.7-2,3.17-3.8,1.95,3.5.79,7.24.79,10.88-1.11-1.08-.85-2.48-.75-3.76C258.31,142.83,257.09,142,254.91,141.92Z" transform="translate(-11.84 -26.99)"/><path class="cls-4" d="M255.15,155.25c.42-.75-2.72-1.51-.14-2.07,1.57-.35,2.58-1.3,3.81-2,.06,1.27.12,2.55.17,3.82l.1.09Z" transform="translate(-11.84 -26.99)"/><path class="cls-18" d="M256.48,134.17c-.55,1.17-1,2.41-2.32,3a3.79,3.79,0,0,1,1.57-4Z" transform="translate(-11.84 -26.99)"/><path class="cls-12" d="M246.09,161.18c-8.22,3.53-8.33,3.54-8,12.24.29,8.41.14,16.89,2.83,25a.71.71,0,0,0,.07.6c-.06.73-.11,1.46-.17,2.19l-1.73-.12a2.1,2.1,0,0,0-1-2v-.89c.72-.4.76-.82,0-1.26a4,4,0,0,0,0-.85v-1c0-1.09.2-2.21-.79-3-.56-5.32.75-10.77-1.06-16,0-1.66-.1-3.31-.14-5,.08-2,.17-4,.25-5.93l.88-2,5.93-3.1a2,2,0,0,0,2-.95l2.82-.3a9.26,9.26,0,0,1,.11,1Z" transform="translate(-11.84 -26.99)"/><path class="cls-9" d="M238.14,199.09a2.1,2.1,0,0,1,1,2c-.35,1-.7,2.06-1.06,3.09l-2.73-.25-.15.06-.15-1a1.24,1.24,0,0,0-.12-.8c-.26-1.12-1-1-1.8-.7l-3,.1c-4.09-.88-7.56,2.72-11.67,1.64l-.46-1.14.3-1C224.89,200.18,231.4,198.49,238.14,199.09Z" transform="translate(-11.84 -26.99)"/><path class="cls-6" d="M235.32,203.93l2.73.25a3.48,3.48,0,0,1-2.72,2.07l-.24-.16C235.14,205.36,235.23,204.64,235.32,203.93Z" transform="translate(-11.84 -26.99)"/><path class="cls-6" d="M235.33,206.25c.42,1.06.34,1.88-1,2.11l-.24-.27a2.17,2.17,0,0,1,1-2Z" transform="translate(-11.84 -26.99)"/><path class="cls-11" d="M211.75,41.19c-.81,4.2-1.61,8.41-4.51,11.81-1.84-.08-4-1.71-2.35-2.61,3.49-1.89,2.87-5.13,4.13-7.71a12.28,12.28,0,0,1,1.07-1.59Z" transform="translate(-11.84 -26.99)"/><path class="cls-11" d="M200.09,44.09c2.85,2.31,2.72,3.21-1,6.91C198.87,48.67,200.7,46.58,200.09,44.09Z" transform="translate(-11.84 -26.99)"/><path class="cls-11" d="M199.09,51c-.31.91-1.08,1.09-1.89,1.22-.79-.2-1.68-.24-1.89-1.28Z" transform="translate(-11.84 -26.99)"/><path class="cls-17" d="M104.24,138.09v14.46l-.49,9c-2.27-2.82-1.45-6.37-3.72-9.09-2,2,.77,5.25-.37,5.53-4.57,1.1-2.82,5.39-4.57,7.79l-1,.14c.72-4.66-4.24-5-5.94-7.81l.09-2a10.86,10.86,0,0,1,2.76,1c2.69,1.95,2.57.8,4.53-1.63,4-4.94,3.18-9.93,3.63-15.12C99.47,136.86,102.39,138.51,104.24,138.09Z" transform="translate(-11.84 -26.99)"/><path class="cls-6" d="M47.09,150A2.7,2.7,0,0,1,49.32,149c6.27.57,6.87.26,7.58-5.9.33-2.87,2.57-1.84,3.9-2.64l2.25.1c5.15.81,10.31,1.44,15.42-.3a.43.43,0,0,0,.6-.1l0,0c1.86-.11,3.63-.42,4.84-2.06a2.07,2.07,0,0,0,1.16-1.94l.48-.06c1-1.59.37-3.32.47-5l1.24-.76c1.13,1.06.53,2.49.78,3.73,0,1.38-.11,2.76-.16,4.14-1,.87-.75,2.1-.93,3.2-3.35-.31-5.61,2.7-8.79,2.9l-1.56.34h-.28a13.41,13.41,0,0,0-6.36-.2,34.85,34.85,0,0,1-5.4-.29c-4.73-1-5.76.92-4.35,5.07C54.71,153.09,52.09,153.27,47.09,150Z" transform="translate(-11.84 -26.99)"/><path class="cls-12" d="M87,141.38c.18-1.11-.06-2.34.93-3.21q.17,9,.32,17.92l-.09,2c-.86,2.82,1,4.4,2.77,6a2.3,2.3,0,0,0-2,1.07A2,2,0,0,1,87,163.29q-.08-7.69-.14-15.38C86.9,145.75,87,143.56,87,141.38Z" transform="translate(-11.84 -26.99)"/><path class="cls-17" d="M105.67,132.26c-.12.59-.25,1.19-.38,1.78a3.46,3.46,0,0,0-.86.43,6,6,0,0,1-6.34,1.27,1.26,1.26,0,0,1-.46-1.16c1.06-2.16,3.47-1.3,5.16-2.17C103.58,132,104.71,132.29,105.67,132.26Z" transform="translate(-11.84 -26.99)"/><path class="cls-12" d="M88.09,134c-.25-1.24.35-2.67-.78-3.73,0-.84.59-1.15,1.35-1.22C89.09,130.81,89.4,132.51,88.09,134Z" transform="translate(-11.84 -26.99)"/><path class="cls-13" d="M85.09,136.09c-5.84-1.07-2.59-6.1-4-9.12a3.07,3.07,0,0,1,1-.07l.91.33v-.08a2,2,0,0,0,1.09,1.94h0l1.5,7Z" transform="translate(-11.84 -26.99)"/><path class="cls-12" d="M85.59,136.09l-1.56-7a3,3,0,0,1,2,2C86,132.73,86.57,134.46,85.59,136.09Z" transform="translate(-11.84 -26.99)"/><path class="cls-13" d="M81.18,127c-2.16,0-2.1-1.51-2-3l2,1.18Z" transform="translate(-11.84 -26.99)"/><path class="cls-12" d="M81.09,125.2l-2-1.18-.18-1.87A2.74,2.74,0,0,1,81.09,125.2Z" transform="translate(-11.84 -26.99)"/><path class="cls-12" d="M84.09,129.09a2,2,0,0,1-1.08-2C84,127.45,84.09,128.23,84.09,129.09Z" transform="translate(-11.84 -26.99)"/><path class="cls-12" d="M83,127.23l-.91-.33C82.69,126.19,82.9,126.54,83,127.23Z" transform="translate(-11.84 -26.99)"/><path class="cls-12" d="M79,122.18l-1-1Z" transform="translate(-11.84 -26.99)"/><path class="cls-12" d="M78,121.18l-1.33-.88,1.42-.21A4.34,4.34,0,0,1,78,121.18Z" transform="translate(-11.84 -26.99)"/><path class="cls-13" d="M156.09,134.09a2,2,0,0,0,.75,2c-.35,5.46-5.16,7.2-8.48,10.19l-1.27.88h0l-1,.93-1,1c-.91,0-1.67.29-1.8,1.36l-.9.8-1.16,1h0a2.41,2.41,0,0,0-2.84,1.88,2,2,0,0,0,0,.42l-1,.7-1.13,1.08-.94.9c-1.66-.06-2.78.64-3,2.36-.2,1.5.28,2.52,2,2.37h0c.76,2.56,3.07,1.75,4.8,2.2,2-.32,4.26.81,6-1a4.85,4.85,0,0,1,.05-.85l5,.15c.77.84,1.8.73,2.8.73l.14.14.09,2.8H132.23c2.45,1,4.91.84,7.33,1.07,4.18.41,8.53-1.25,12.55,1-8.41,0-16.83-.16-25.23.12a25,25,0,0,1-13.58-3.41l-1.07-.91a5.44,5.44,0,0,0-.09-.8c.23-.27.47-.53.7-.79l-.7-.44c1.36-2.23,2.18-4.9,4.89-6,1.64.39,2.57-.5,3.24-1.83,2-.27,3.14-2,4.7-3,1.17-.24,2.12-.6,2.12-2h0l1.06-1h0l1.06-.93h0c3.26.1,4.09-2.48,5.22-4.73l.17-.13c1.79-1,1.56-1.86-.17-2.61a3.14,3.14,0,0,0-3.45.13,25.15,25.15,0,0,1-16.73-2.9l.13-.14c.44-1.52-.84-2.48-1.2-3.73,3.37-1.76,6.81,0,10.21-.19,8.72-.37,17.48.71,26.18-.68C152,131.87,153.84,133.78,156.09,134.09Zm-33.35,33.15c3.29-.5,5.65,1,6.22-2.09a2,2,0,0,0-1.52-2.38,1.41,1.41,0,0,0-.35-.05C123.8,162.39,125.68,165.77,122.74,167.24Z" transform="translate(-11.84 -26.99)"/><path class="cls-4" d="M134.14,81.16c3.12-.8,6.39-2.48,8.67,1.51.73,1.27,1.07,2.39-.82,3-2.51.79-6.88-1.7-7.82-4.52Z" transform="translate(-11.84 -26.99)"/><path class="cls-13" d="M95.09,165.78c1.75-2.4,0-6.68,4.58-7.82,1.14-.28-1.62-3.5.37-5.53,2.27,2.72,1.45,6.27,3.72,9.09l.49-9c.28.18.55.35.82.54l.09,2c0,2.64.11,5.29-.08,7.92-.26,3.85-2.66,5.37-6.35,4.17C97.49,166.79,96.3,166.26,95.09,165.78Zm4.73-2.31c-.12.28-.4.62-.32.82s.51.26.79.38c.12-.28.4-.62.32-.81S100.09,163.59,99.82,163.47Z" transform="translate(-11.84 -26.99)"/><path class="cls-12" d="M114.21,137a25.15,25.15,0,0,0,16.73,2.9c-2.72,3.19-6.37,1.25-9.58,1.64a18.2,18.2,0,0,1-4.41-.45C115.41,140.09,114,139.09,114.21,137Z" transform="translate(-11.84 -26.99)"/><path class="cls-12" d="M134.39,142.51c-1.13,2.25-2,4.83-5.22,4.73q1.38-2,2.75-4.07Z" transform="translate(-11.84 -26.99)"/><path class="cls-12" d="M134.39,139.77c1.73.75,2,1.61.17,2.61C134.51,141.51,134.45,140.64,134.39,139.77Z" transform="translate(-11.84 -26.99)"/><path class="cls-12" d="M127.09,149.09c0,1.44-1,1.8-2.16,2,0-.66.09-1.31.13-2Z" transform="translate(-11.84 -26.99)"/><path class="cls-7" d="M95.09,165.78c1.21.48,2.4,1,3.64,1.41,3.69,1.2,6.09-.32,6.35-4.17.19-2.63.06-5.28.08-7.92H107c.09.72.17,1.44.26,2.17a12.39,12.39,0,0,1,0,1.83v3A11.45,11.45,0,0,1,105.8,170a1,1,0,0,0-.7.21h-1.91l-3-.1c-3.67-1.9-8.74-.57-11.34-4.92a2.3,2.3,0,0,1,2-1.07l3.19,1.82Z" transform="translate(-11.84 -26.99)"/><path class="cls-4" d="M107.3,159.09v-1.83l1.79-.17a1.74,1.74,0,0,1-1.48,2A1.62,1.62,0,0,1,107.3,159.09Z" transform="translate(-11.84 -26.99)"/><path class="cls-12" d="M129.19,147.22l-1.1.93v-1.06Z" transform="translate(-11.84 -26.99)"/><path class="cls-12" d="M128.15,148.09l-1.06,1Z" transform="translate(-11.84 -26.99)"/><path class="cls-7" d="M113.3,164.91a25,25,0,0,0,13.58,3.36c8.4-.28,16.82-.11,25.23-.12l2.07.16c1.45,0,2-.61,1.58-2l2.33,1.78c1.15,2.48.51,3.91-2.37,3.85-11.47-.22-23,.55-34.43-.75-3.64-.42-6.75-1.73-8.6-5.14Z" transform="translate(-11.84 -26.99)"/><path class="cls-7" d="M170.09,223.19l-.15,2.35c-4.5-.84-8.25-3.42-12.29-5.31-2.43-1.13-3.8-1-3.5,2.11a2,2,0,0,1,0,.49c-.91,3.6,2.73,9.39-4.57,9.91-9.76.68-15.86-3.41-16.26-11.29-.46-8.44-.23-16.91-.36-25.36.71-1.39-.61-3.69,1.91-4.27a1.73,1.73,0,0,0,.39.5c-2.2,9.7-1,19.52-.68,29.25.2,5.71,5.22,8,13.55,7.55,6.17-.32,3-5,3.82-7.85a6.39,6.39,0,0,0,.05-2c-.15-3.56,1.61-4,4.36-2.62C160.86,219,165.16,221.74,170.09,223.19Z" transform="translate(-11.84 -26.99)"/><path class="cls-10" d="M100.24,170.09l2.94.09c-.23,2.54-.24,5,1.83,6.95h0c-.1,1.15-.11,2.27,1.1,2.92h0a3.12,3.12,0,0,0,2,2l.18,1.79-.23.28c-.85.34-.94,1-.89,1.83-.11.15-.22.3-.34.44l-5.89-2.27c1.52-.56,3.3.57,5.08-1C102.63,179.48,102,174.55,100.24,170.09Z" transform="translate(-11.84 -26.99)"/><path class="cls-10" d="M158.09,168.09l-2.37-1.87-.63-1.28c2.84.25,6,1.27,7-2.84a5,5,0,0,0,1.14,4c-1.41.61-1.12,1.91-1.25,3C160.8,168.48,159.87,166.73,158.09,168.09Z" transform="translate(-11.84 -26.99)"/><path class="cls-10" d="M108.26,183.9c3.33,1.12,3.22,5.37,6.18,6.83l-.54.57a22.47,22.47,0,0,1-7.1-4.85c.12-.14.23-.29.34-.44a1.73,1.73,0,0,0,.89-1.83Z" transform="translate(-11.84 -26.99)"/><path class="cls-4" d="M105.79,170a11.45,11.45,0,0,0,1.49-7.88C110.46,165.64,109.81,169.09,105.79,170Z" transform="translate(-11.84 -26.99)"/><path class="cls-4" d="M105,177.14c-2.07-1.93-2.06-4.41-1.83-6.95h1.91Q105.09,173.66,105,177.14Z" transform="translate(-11.84 -26.99)"/><path class="cls-4" d="M135.09,190.09c-1.59-2.92.67-2.65,2.36-2.84l-.56,1.59Z" transform="translate(-11.84 -26.99)"/><path class="cls-10" d="M125.09,202.09l-.18,2.13-2.1-3.9.63-.51,1.65,1.2Z" transform="translate(-11.84 -26.99)"/><path class="cls-10" d="M136.84,188.85l.56-1.59a1.5,1.5,0,0,0,.69-.17l1.79-.22.51.64-2.87,2Z" transform="translate(-11.84 -26.99)"/><path class="cls-10" d="M135.09,190.09l1.8-1.25.68.67a5.64,5.64,0,0,1-2.26,2.79,1.73,1.73,0,0,1-.39-.5A10.11,10.11,0,0,1,135.09,190.09Z" transform="translate(-11.84 -26.99)"/><path class="cls-4" d="M113.3,164.91l-.57,1.18c-1.48-.39-2-1-.5-2.09Z" transform="translate(-11.84 -26.99)"/><path class="cls-10" d="M119.2,195l2.07,1.94-.67.66-2.11-2Z" transform="translate(-11.84 -26.99)"/><path class="cls-4" d="M125.09,201l-1.65-1.2a1.12,1.12,0,0,1,.07-.72A1.79,1.79,0,0,1,125.09,201Z" transform="translate(-11.84 -26.99)"/><path class="cls-4" d="M106.09,180.09c-1.21-.65-1.2-1.77-1.1-2.92C106.29,177.76,106.09,179,106.09,180.09Z" transform="translate(-11.84 -26.99)"/><path class="cls-4" d="M108.09,182.09a3.12,3.12,0,0,1-2-2,1.81,1.81,0,0,1,2,1.6A2.67,2.67,0,0,1,108.09,182.09Z" transform="translate(-11.84 -26.99)"/><path class="cls-10" d="M121.27,196.92c.4.57.81,1.15,1.2,1.72-.14.18-.29.34-.44.5l-1.43-1.56Z" transform="translate(-11.84 -26.99)"/><path class="cls-4" d="M146.09,185l-2,.14C144.66,184.14,145.31,184,146.09,185Z" transform="translate(-11.84 -26.99)"/><path class="cls-4" d="M139.88,186.86l-1.79.23a2,2,0,0,1,2-1A2.59,2.59,0,0,1,139.88,186.86Z" transform="translate(-11.84 -26.99)"/><path class="cls-10" d="M115.45,191.72l1.78,1.24-.53.57-1.61-1.44Z" transform="translate(-11.84 -26.99)"/><path class="cls-10" d="M118.2,194l1,1-.71.64-.95-1Z" transform="translate(-11.84 -26.99)"/><path class="cls-10" d="M117.23,193c.32.34.64.68,1,1l-.66.66-.84-1.1Z" transform="translate(-11.84 -26.99)"/><path class="cls-10" d="M114.44,190.73l1,1-.35.36-1.15-.82Z" transform="translate(-11.84 -26.99)"/><path class="cls-4" d="M112.14,162l.7.44c-.23.26-.47.52-.7.79Z" transform="translate(-11.84 -26.99)"/><path class="cls-4" d="M142.47,185.22l-1.38.75Z" transform="translate(-11.84 -26.99)"/><path class="cls-10" d="M123.51,199.09a1.11,1.11,0,0,0-.07.76l-.63.51-.78-1.22c.15-.16.3-.32.44-.5Z" transform="translate(-11.84 -26.99)"/><path class="cls-2" d="M243.09,160l-5.92,3.06c-1.35-1.42-2.8-2.67-4.27-.24-1.94,3.21-4.58,2.12-7.55,1.28,5.21-1.82,6.49-7.27,10.39-10.2,1.63-1.23.93-6.44-.93-6.51-3.37-.12-4.09-3.55-6.72-4.28,3-.31,5.73-3.09,9-1.1,2.19,4.59,1.9,10.23,6,14h0Z" transform="translate(-11.84 -26.99)"/><path class="cls-16" d="M237.09,142.09c-3.29-2-6,.79-9,1.1-2.12,0-2.08,1.42-2,2.91-.8,3.51,1.18,7.29-1,10.65,0-1.17-.07-2.32-1.38-2.86a5.16,5.16,0,0,0-.62-3.8c-1-6.44.49-11.21,8-11.87a4,4,0,0,0,3.27-.94,1,1,0,0,0,.73-.19c1.14,0,2.27.07,3-1.08l1.89.17,1.11.91h0l.12,1.84-2.11.93-.93,2.16Z" transform="translate(-11.84 -26.99)"/><path class="cls-2" d="M225.09,156.74c2.23-3.36.25-7.14,1-10.65,3.29,2.8,3.5,6.55,2.24,10.1-1.65,4.67-5.9,4-9.76,3.7C220.09,157.43,222.87,157.67,225.09,156.74Z" transform="translate(-11.84 -26.99)"/><path class="cls-9" d="M218.22,194.09c4.83,0,9.72-.35,15,2.15-5.2,2.32-11.31-3.22-14.94,2.89Z" transform="translate(-11.84 -26.99)"/><path class="cls-9" d="M236.18,176.09c1.81,5.24.5,10.69,1.06,16C236.65,186.73,233.09,181.61,236.18,176.09Z" transform="translate(-11.84 -26.99)"/><path class="cls-9" d="M217.41,179.14c3.14,4.14,1.77,8.56.81,13l-.39-2.9L217,179.09Z" transform="translate(-11.84 -26.99)"/><path class="cls-16" d="M217.83,189.2l.39,2.9v2l.06,5v2l-.3,1A21.05,21.05,0,0,1,217.83,189.2Z" transform="translate(-11.84 -26.99)"/><path class="cls-2" d="M236.29,165.14c-.08,2-.17,4-.25,5.93C234.69,169,234.37,167.09,236.29,165.14Z" transform="translate(-11.84 -26.99)"/><path class="cls-9" d="M238,195.09v1a4.86,4.86,0,0,1-.4-.7Z" transform="translate(-11.84 -26.99)"/><path class="cls-9" d="M238.18,196.93c.72.44.68.86,0,1.26C238.15,197.77,238.17,197.35,238.18,196.93Z" transform="translate(-11.84 -26.99)"/><path class="cls-6" d="M217.83,189.2a21,21,0,0,0,.17,12.89c.14.38.27.77.4,1.15-.48,1-1.36,1-2.29.89a2.52,2.52,0,0,0-.38-.91c0-.73,0-1.46-.07-2.19l.27-8.67c-.09-.39-.19-.77-.28-1.16a4.85,4.85,0,0,0-.4-1c-.06-3-.11-6-.17-9h.35l1.59-2Z" transform="translate(-11.84 -26.99)"/><path class="cls-18" d="M216.09,204.09c.93.12,1.81.13,2.29-.89,4.12,1.08,7.59-2.52,11.68-1.64-2.89,1.48-5.67,3.33-8.72,4.28C219.76,206.33,216.89,207.45,216.09,204.09Z" transform="translate(-11.84 -26.99)"/><path class="cls-7" d="M231,208.89c-1,3.2-3.59,3.3-6.26,3.26A12.09,12.09,0,0,1,231,208.89Z" transform="translate(-11.84 -26.99)"/><path class="cls-7" d="M235.09,206.09a2.17,2.17,0,0,0-1,2c-1,.47-1.94,1.16-3.15.85l3.24-4.85a5.56,5.56,0,0,0,1-.1l.15-.06C235.23,204.64,235.14,205.36,235.09,206.09Z" transform="translate(-11.84 -26.99)"/><path class="cls-18" d="M215.09,181.09c.06,3,.11,6,.17,9C213.38,187.09,213.59,184.09,215.09,181.09Z" transform="translate(-11.84 -26.99)"/><path class="cls-18" d="M201,214.23a4,4,0,0,1-.82-.21c-.24-2-.49-4-.73-6C202.39,209.47,200.6,212.09,201,214.23Z" transform="translate(-11.84 -26.99)"/><path class="cls-18" d="M215.66,201c0,.73.05,1.46.07,2.19-1-.37-3,.56-3-1.28C212.82,200.73,214.64,201.23,215.66,201Z" transform="translate(-11.84 -26.99)"/><path class="cls-18" d="M200.09,179.14a3.35,3.35,0,0,1,1,0c-.35,1.7.81,3.83-1.39,5C198.75,182.43,200,180.82,200.09,179.14Z" transform="translate(-11.84 -26.99)"/><path class="cls-18" d="M207,177c2.35-1.26,4.69-1.85,7,.15Z" transform="translate(-11.84 -26.99)"/><path class="cls-7" d="M224,212.79c-.62,1.58-2,1.87-3.48,2.16C221.25,213.52,222.59,213.09,224,212.79Z" transform="translate(-11.84 -26.99)"/><path class="cls-18" d="M201.19,179.09a2.91,2.91,0,0,1,.11-.83l2.7-.32C203.45,179.29,202.27,179.09,201.19,179.09Z" transform="translate(-11.84 -26.99)"/><path class="cls-18" d="M233.09,201.45c.79-.25,1.54-.42,1.8.7Z" transform="translate(-11.84 -26.99)"/><path class="cls-18" d="M204,178a1.85,1.85,0,0,1,2.06-.79A2,2,0,0,1,204,178Z" transform="translate(-11.84 -26.99)"/><polygon class="cls-7" points="204.94 188.97 204.58 189.15 204.69 188.84 204.94 188.97"/><path class="cls-7" d="M220.09,214.92c-.2.63-.47,1-1,.24Z" transform="translate(-11.84 -26.99)"/><path class="cls-7" d="M214.09,217.18l-1.5.78Z" transform="translate(-11.84 -26.99)"/><path class="cls-7" d="M214.86,216.84a3.07,3.07,0,0,1-.64.29l.24-.35Z" transform="translate(-11.84 -26.99)"/><path class="cls-12" d="M215.65,191.15c.09.39.19.77.28,1.16a5.73,5.73,0,0,1-.45-.75C215.44,191.46,215.59,191.29,215.65,191.15Z" transform="translate(-11.84 -26.99)"/><path class="cls-18" d="M199.39,206.09a4.62,4.62,0,0,1,.07-1,4.68,4.68,0,0,1,.21.73C199.68,205.9,199.49,206,199.39,206.09Z" transform="translate(-11.84 -26.99)"/><path class="cls-6" d="M235.17,204a5.56,5.56,0,0,1-1,.1L235,203Z" transform="translate(-11.84 -26.99)"/><path class="cls-13" d="M163.26,166.09a5,5,0,0,1-1.17-4h0a1.77,1.77,0,0,0,1-2h0a2.62,2.62,0,0,0,2-2h0l1-1.16a2.06,2.06,0,0,0,1-1.84h0a1.06,1.06,0,0,0,1.11-1l-.07.06,1.05-1.24v-.31l1-1.51-.06.1a1.58,1.58,0,0,0,1.73-1.27l.08-.08a1.51,1.51,0,0,0,1.23-1.75h-.05c.71,0,1-.41,1-1.07l-.06.07,1-1.09-.06.07c1.63-.86,3.15-1.82,3.15-4l.2.12c3.06-1.11,4.47-3.75,6.29-6.28-3.76-.71-6.43,1.85-9.64,2,.17-3.84-2.69-2.82-4.78-2.92s-4.49-.35-4.22,3a2.58,2.58,0,0,1-1.94-2c.84-.91,2.13-1.71.68-3.12,2.32-2.11,5.72.32,8-1.89,1.18-1.25,2.85-.71,4.25-1.14l7.1-1.46c4-.63,8.14-1.07,11.19-4.28H197c2.3.48,5-1.72,7,1,.38,2.9-1.86,5.17-1.92,8a.42.42,0,0,0-.14.57L201,135v-.09a2.24,2.24,0,0,0-1.88,2.15l-1,1.23c-1.13.51-1.2,1.65-1.54,2.63a.49.49,0,0,0-.52.32l-.72.84-1.22,1.36-.4.1v.4l-4.65,5.5-.66.59c-2,3.3-1.26,4.75,2.7,4.12,3.8.52,7.35-1.27,11.1-1.25.29.06.58.14.87.23a.46.46,0,0,0,.57.29l0,0v.08l.6,1.63,1.11,1.82-.05,1.13c-.41.95-1.28,1.1-2.16,1.24-2.38-3-6-2.89-11,.37,2.19,1.85,4.61-1.9,6.86.24-8.55,2.34-17,4.85-25.66,6.92C170.09,167.65,166.52,167.9,163.26,166.09Z" transform="translate(-11.84 -26.99)"/><path class="cls-17" d="M199.09,159.93c-2.25-2.14-4.67,1.61-6.86-.24,5-3.26,8.59-3.4,11-.37C202,160.61,200.48,160.09,199.09,159.93Z" transform="translate(-11.84 -26.99)"/><path class="cls-13" d="M122,199.14l.78,1.18,2.13,3.85.24,2a6,6,0,0,0-.16.93h0c-1,.39-.8.75,0,1.08.08.33.15.65.23,1-4.63,14.56-16,19.11-32.4,13.57-4-1.35-6.52-5.11-10.8-5.65h0c.11-.79-.23-1.12-1-1h0c0-.11.15-.23.13-.33a3.84,3.84,0,0,0-.09-.68l-2.72-3.18c-4.93-6.14-7.28-12.91-5.23-20.82h0c1.34-2,2.69-4,4-6h0a1,1,0,0,0,1-1h0a1,1,0,0,0,1-1l.07.09c5.28-1,10.56-1.79,15.87-.2h3l2.81,1.2,5.89,2.27a22.47,22.47,0,0,0,7.1,4.85l1.21.79,1.65,1.4.84,1.1,1,1,2.11,2ZM101.26,215.2c4.62-4.66,6.21-15.5,2.81-20.66-1.76-2.66-4-5.09-7.77-3.41-7.3,3.25-9.36,21.2-3,26A3.17,3.17,0,0,0,96,218C97.76,217,100.21,217.42,101.26,215.2ZM90,189.25c-2.21-2.46-4.53-2.49-7-1.77a1,1,0,0,0-.59,1.36,1.23,1.23,0,0,0,.14.25c1.74,1.8,4,.76,6,.84C88.81,190,89.09,189.69,90,189.25Zm4-.82c2.73.8,4.68,1.13,6.48,0,.49-.3.23-1.28-.4-1.67C97.84,185.45,96.09,186.27,94,188.43Z" transform="translate(-11.84 -26.99)"/><path class="cls-13" d="M135.26,192.31a5.64,5.64,0,0,0,2.26-2.79l2.87-2c12.17-2,24.33-3.43,36.7-1.68,5,.69,9.41,2,12.47,6.23-.63,6.81-6.06,10.3-10.27,14.58-5.2,5.29-5.2,5.44,1.8,7.87.93.32,1.91.49,2.86.72.64.51,1.25,1,1.92,1.51,1.8,1.24,5.08,1.82,3.94,4.76a7.41,7.41,0,0,1-6.89,4.83c-4.58.15-8.62-1.94-12.88-3.15-4.91-1.45-9.21-4.21-13.71-6.53-2.75-1.4-4.51-.94-4.36,2.62a6.39,6.39,0,0,1-.05,2c-.77,2.81,2.38,7.51-3.83,7.81-8.33.44-13.35-1.84-13.55-7.55C134.24,211.83,133.09,202,135.26,192.31Zm29.83,11,.88-1.2c2.41,1.26,3.33-1.53,5.14-1.89.06,1.84-.06,3.35,2.72,1.85,3.13-1.69,3.47-5.16,5.94-7.08-4.69-3.45-3.94,3.23-6.76,3,.32-2.68-.81-4-3.58-4a26.09,26.09,0,0,0-13.15,3.57c-3.19,1.86-3.61,7.13-1.19,9.91,1.4,6.37,6.72,4,10.25,5.11,1.82-1.4-5.28-6.15,2.34-4.72,1.39.26,1.8-1.47.54-2.36C167.19,204.73,165.74,204.59,165.09,203.27Z" transform="translate(-11.84 -26.99)"/><path class="cls-9" d="M203.09,153.16c-.29-.09-.58-.17-.87-.23-.64-2.73-2.71-1.8-4.33-1.53-2.22.37-4.4,1-6.6,1.58l15.8-21.27,2,.4c2.34,2.06,1.31,4.35.65,6.77-1,3.8-1.79,7.67-2.62,11.52-.4,1.89-1,3.49-3.41,3.11v-.87Z" transform="translate(-11.84 -26.99)"/><path class="cls-18" d="M210,155.16c1.71.08,3.53-.62,5.07.7-1.38,1.44-3.19,1.08-4.88,1.21C210.09,156.44,210,155.8,210,155.16Z" transform="translate(-11.84 -26.99)"/><path class="cls-6" d="M205.41,157l-1.11-1.82C205.41,155.3,206.39,155.53,205.41,157Z" transform="translate(-11.84 -26.99)"/><path class="cls-12" d="M73.14,191.09c-2.1,7.89.3,14.66,5.21,20.8l-1.36,1a2.15,2.15,0,0,1-.8,0c-.27-.31-.55-.62-.83-.92-.74-1.88-1.27-3.83-3.13-4.88V207a1,1,0,0,0,0-.77c-.09-.69-.16-1.37-.24-2.05l-.82-1,0-.07C71.57,199,69.56,194.58,73.14,191.09Z" transform="translate(-11.84 -26.99)"/><path class="cls-9" d="M72.23,206.09a1,1,0,0,1,0,.77c-.83.19-1.7.3-2.16,1.18h-2c.31-1.5-1.93-2.93,0-4.69C69.26,204.68,70,206.72,72.23,206.09Z" transform="translate(-11.84 -26.99)"/><path class="cls-16" d="M77,212.92c.45-.34.9-.68,1.36-1l2.74,3.17-1,1.07-2-1.07-.92-1h0Z" transform="translate(-11.84 -26.99)"/><path class="cls-9" d="M72.23,207.09c1.89,1.1,2.39,3.08,3.13,4.91C72.19,211.68,72.19,209.37,72.23,207.09Z" transform="translate(-11.84 -26.99)"/><path class="cls-9" d="M72.09,215.09c-2.12-.4-2.62-1.34-1-3C72.26,212.81,72.09,214,72.09,215.09Z" transform="translate(-11.84 -26.99)"/><path class="cls-6" d="M80.09,216.16l1-1.07a4.21,4.21,0,0,1,.2.63,1,1,0,0,1-.13.33Z" transform="translate(-11.84 -26.99)"/><path class="cls-9" d="M77,212.92l.12,1.11-.92-1.16A2.15,2.15,0,0,0,77,212.92Z" transform="translate(-11.84 -26.99)"/><path class="cls-9" d="M77.14,214.09l.92,1Z" transform="translate(-11.84 -26.99)"/><path class="cls-6" d="M81.09,216.09c.79-.11,1.13.22,1,1A.88.88,0,0,1,81.09,216.09Z" transform="translate(-11.84 -26.99)"/><path class="cls-18" d="M223.09,150.09a5.16,5.16,0,0,1,.65,3.78l-2.5.4C221.88,152.91,221.79,151.2,223.09,150.09Z" transform="translate(-11.84 -26.99)"/><path class="cls-18" d="M219.09,155a1.74,1.74,0,0,1,2.1-.74A1.91,1.91,0,0,1,219.09,155Z" transform="translate(-11.84 -26.99)"/><path class="cls-18" d="M217.09,155.64l1.16-.45Z" transform="translate(-11.84 -26.99)"/><path class="cls-6" d="M125.09,208.09c-.83-.33-1-.69,0-1.08Z" transform="translate(-11.84 -26.99)"/><path class="cls-6" d="M125,207.09a6.72,6.72,0,0,1,.16-1,4.34,4.34,0,0,1,.24.72Z" transform="translate(-11.84 -26.99)"/><path class="cls-17" d="M71.14,117.09a1.25,1.25,0,0,1,.16.82c-.48,0-1.13.42-1.3-.42A9.05,9.05,0,0,1,71.14,117.09Z" transform="translate(-11.84 -26.99)"/><path class="cls-11" d="M214.09,66.09A20.52,20.52,0,0,0,214.3,69c1.18,6.11,1.2,6.12-5.12,7.09-1.34.21-2.43.43-1.18,2.06-2,1.36-4.42,1.81-5.7-.17-2.09-3.24-4.45-6.87-2.39-11,.83-1.66,1.18-4.71,4.23-3.84,5.67,1.61,6.32-2.18,7-6.11,2.06,5.36.12,8.29-5.67,8.31a3.8,3.8,0,0,0-4,3.59,2.81,2.81,0,0,0,0,.41c.13,2.58-.08,6.21,2.88,7.28,1.88.68,3.68-2.26,6.12-2.41,4.06-.24,2.46-2.82,1.92-5A2.54,2.54,0,0,1,214.09,66.09Z" transform="translate(-11.84 -26.99)"/><path class="cls-11" d="M209.09,54.19c2.17-.1,2.16,1.35,2,2.9C209.88,56.52,209.69,55.19,209.09,54.19Z" transform="translate(-11.84 -26.99)"/><path class="cls-9" d="M169.09,152.62v.31l-1,1.24.07-.06-1.07,1h0l-1.12,1a2,2,0,0,0-.88,2h0c-1.41,0-2,.71-1.94,2.08h0c-1,.34-1.13,1.12-1,2h0c-1.06,4-4.24,3-7.06,2.77-.1-1.24-.73-1.85-2-1.68l-.17-.17c-.2-.36-.4-.72-.59-1.08-3.44-1.85-7.16-.54-10.72-1-1.08-.14-2.63.47-3-1-.32-1.27,1-1.9,1.91-2.63,4.88-4,9.81-7.86,14.56-12,2.79-2.29,5.58-5,3-9.29.53-3.38,2.55-.84,3.89-1,.13,1.06-.07,2.24,1,3l1.11,1h0c1,3.63,3.37,4.44,6.91,3.6,2.41-.58,4.9-2.27,7.49-.44l-.2-.12a4.36,4.36,0,0,0-3.15,4l.06-.07c-.35.36-.7.72-1,1.09l.06-.07c-.35.36-.69.72-1,1.07h.05c-.9.24-1.15.94-1.23,1.76L172,150a1.87,1.87,0,0,0-1.73,1.27l.06-.1A12.27,12.27,0,0,0,169.09,152.62Z" transform="translate(-11.84 -26.99)"/><path class="cls-16" d="M178.44,142.3c-2.59-1.83-5.08-.14-7.49.44-3.54.84-5.86,0-6.91-3.6,1.06-.09,2.2.21,3.08-.7l8-.41c3.21-.16,5.88-2.72,9.64-2C182.91,138.55,181.5,141.19,178.44,142.3Z" transform="translate(-11.84 -26.99)"/><path class="cls-17" d="M175.09,138l-8,.41-1-.35c-.27-3.35,2.07-3.12,4.22-3S175.26,134.19,175.09,138Z" transform="translate(-11.84 -26.99)"/><path class="cls-17" d="M164.83,133c1.45,1.41.16,2.21-.68,3.12C163,134.72,163.34,133.72,164.83,133Z" transform="translate(-11.84 -26.99)"/><path class="cls-16" d="M164.09,139.09l-1.1-1Z" transform="translate(-11.84 -26.99)"/><path class="cls-1" d="M196,124.09l-.31.14h-.34c-3.66,1.6-8.66-.29-11.18,4.28l-7.11,1.41c-1.22-1-2.44-1.94-2-3.79,2-1.82,5.46-1.27,7-4,1.71.09,3.25-.18,4-2a.82.82,0,0,1,.76-.08,3,3,0,0,0,2.27-1.87l7.77-1c.07.64.14,1.29.22,1.93v3A2,2,0,0,0,196,124.09Z" transform="translate(-11.84 -26.99)"/><path class="cls-16" d="M158.09,136.09c2.62,4.25-.17,6.93-3,9.34-4.75,4.11-9.68,8-14.56,12-.9.73-2.23,1.36-1.91,2.63.36,1.47,1.91.86,3,1,3.56.44,7.28-.87,10.71,1l-2.24.33-5-.15h-5.91l-4.89-.38h0a5.14,5.14,0,0,1,1-4.74l.94-.9,1.13-1.08,1-.7a4.33,4.33,0,0,0,2.89-2.3h0l1.16-1,.9-.8a2.2,2.2,0,0,0,1.78-1.25l1-1,1.07-1h0l1.26-.91c3.32-3,8.13-4.73,8.48-10.19Z" transform="translate(-11.84 -26.99)"/><path class="cls-7" d="M232.72,131.09a3.68,3.68,0,0,1-4.7,1.32c-1.62-1-.47-3-.24-4.56.43-2.86.42-5.85,2.4-8.73,2.47,2.71,4,5.35,4,8.75-1.14-.71-.71-2.94-3-2.83C231.88,127.09,227.09,130.2,232.72,131.09Z" transform="translate(-11.84 -26.99)"/><path class="cls-18" d="M241.22,138.94l-.13-1.85c3.72,3.27,7.86,1.29,11.88.95-3.26,2.69-6.84,3.71-10.91,2h0l-.93-1.1Z" transform="translate(-11.84 -26.99)"/><path class="cls-4" d="M232.72,131.09c-5.68-.87-.84-4-1.62-6,2.32-.11,1.89,2.12,3,2.83C234.31,129.21,233.4,130.09,232.72,131.09Z" transform="translate(-11.84 -26.99)"/><path class="cls-18" d="M238.09,136c-.7,1.15-1.83,1.12-3,1.08C235.45,135,236.42,134.56,238.09,136Z" transform="translate(-11.84 -26.99)"/><path class="cls-18" d="M246.09,107.09a8,8,0,0,1-.14,1,2,2,0,0,1-1.86-1.87Z" transform="translate(-11.84 -26.99)"/><path class="cls-18" d="M234.37,137.29a4,4,0,0,1-3.27.94C231.87,136.82,233.09,137.09,234.37,137.29Z" transform="translate(-11.84 -26.99)"/><path class="cls-18" d="M241.09,137.09l-1.12-.92Z" transform="translate(-11.84 -26.99)"/><path class="cls-12" d="M191.24,153c2.2-.54,4.38-1.21,6.6-1.58,1.62-.27,3.69-1.2,4.33,1.53-3.75,0-7.3,1.77-11.1,1.25C191.09,153.78,191.18,153.38,191.24,153Z" transform="translate(-11.84 -26.99)"/><path class="cls-7" d="M202.09,133.09c.06-2.8,2.3-5.07,1.92-8l1.08.14A10.09,10.09,0,0,1,202.09,133.09Z" transform="translate(-11.84 -26.99)"/><path class="cls-7" d="M196.57,141c.34-1,.41-2.12,1.54-2.63C198.09,139.48,198.15,140.71,196.57,141Z" transform="translate(-11.84 -26.99)"/><path class="cls-7" d="M199.09,137.09a2.23,2.23,0,0,1,1.93-2.17A2.86,2.86,0,0,1,199.09,137.09Z" transform="translate(-11.84 -26.99)"/><path class="cls-7" d="M201,135l1-1.37Z" transform="translate(-11.84 -26.99)"/><path class="cls-7" d="M195.33,142.09l.72-.84Z" transform="translate(-11.84 -26.99)"/><path class="cls-7" d="M193.68,144v-.4l.4-.1A6.25,6.25,0,0,1,193.68,144Z" transform="translate(-11.84 -26.99)"/><path class="cls-7" d="M188.37,150.09l.66-.59A1.4,1.4,0,0,1,188.37,150.09Z" transform="translate(-11.84 -26.99)"/><path class="cls-8" d="M196,124.09a2,2,0,0,1,1.11-2l0,2Z" transform="translate(-11.84 -26.99)"/><path class="cls-3" d="M217.09,59.09c-4.09-.6-2.8-3.8-3-6.25-.09-1.18.07-2.63,1.61-2.6,2.51,0,5,.61,6.61,2.76.87,1.14.79,3.47-.81,2.68C217,53.42,217.9,57.14,217.09,59.09Z" transform="translate(-11.84 -26.99)"/><path class="cls-1" d="M231.09,65.09c-6.1,2.09-3.21-3-4-5.06,1.12,0,2.29-.15,3,1l.84,1.06C231,63.09,231.09,64.09,231.09,65.09Z" transform="translate(-11.84 -26.99)"/><path class="cls-2" d="M231,62.09,230.09,61Z" transform="translate(-11.84 -26.99)"/><path class="cls-13" d="M257.09,188c.74,3.21.77,3.26,3.29,1.94.73-.39,1.27-.46,1.53.29.34,1,.35,2.39-.53,2.74-3.42,1.34-6.54,4.08-10.63,2.77a4.22,4.22,0,0,1-2.07-1.29c-1.18-1.6,1.79-14,3.54-15.23a2.45,2.45,0,0,1,1-.17c1.32,1.14.84,2.25,0,3.44-1.93,2.82.39,2.41,2,2.54l.91,1.18V187Z" transform="translate(-11.84 -26.99)"/><path class="cls-7" d="M265,168.25c-7.89.12-9,1.27-8.16,9.28.23,2.2-.23,4.63,1.28,6.61l-1,2-1.11.12-.87-1.17-.9-17,.9-1.91,1.26-.94c2.69.09,5.5-1,8,.81Z" transform="translate(-11.84 -26.99)"/><path class="cls-13" d="M256.09,157.09c.17.72-2.26,1.26-.27,2,1.18.41,2.62.06,3.94.11,1,0,2.08.21,2.05,1.55,0,1-.86,1.29-1.73,1.36a9.06,9.06,0,0,0-3.3.86c-4.69,2.24-5.82,1.62-7-3.52l.39-1.23h0a2.28,2.28,0,0,0,2.92-1.13h3Z" transform="translate(-11.84 -26.99)"/><path class="cls-13" d="M265,168.25l-.6-2.19c.55-.32,1.26-.52,1.61-1,.82-1.09,1.69-2.47,3.11-1.6s.16,2.46-.23,3.49c-.77,2.07-.5,4.25-1.07,6.27s-1.27,3.87-3.84,3.87C265.45,174.25,265.14,171.24,265,168.25Z" transform="translate(-11.84 -26.99)"/><path class="cls-18" d="M254.25,168.09l.9,17c-1.59-.13-3.91.28-2-2.54.82-1.19,1.3-2.3,0-3.44C253.65,175.43,251.87,171.55,254.25,168.09Z" transform="translate(-11.84 -26.99)"/><path class="cls-18" d="M257.17,186.09l1-2c1.31-1.36,1.8-3.58,4.08-3.93A6,6,0,0,1,257.17,186.09Z" transform="translate(-11.84 -26.99)"/><path class="cls-13" d="M262.28,186.47c2.1.1,3.49.41,3.56,2.35a1.38,1.38,0,0,1-.87,1C262.88,190,262.75,188.37,262.28,186.47Z" transform="translate(-11.84 -26.99)"/><path class="cls-13" d="M250.77,169.2c-.22.85-.69,1.53-1.63,1.41-1.1-.15-1-1.13-1-1.91s.45-1.34,1.18-1.21A1.6,1.6,0,0,1,250.77,169.2Z" transform="translate(-11.84 -26.99)"/><path class="cls-10" d="M256.09,157.09h-3l2.09-1.82,3.91-.18C258.56,156.44,257,156.32,256.09,157.09Z" transform="translate(-11.84 -26.99)"/><path class="cls-13" d="M272.93,159.09c-.55.36-.88.75-1.24.78-.65.06-1.29-.25-1.07-1,.08-.28.74-.55,1.12-.54S272.4,158.73,272.93,159.09Z" transform="translate(-11.84 -26.99)"/><path class="cls-10" d="M250.15,158.15l-.39,1.23-1.71.35a7.44,7.44,0,0,0-.11-1,1.53,1.53,0,0,1,.11-.7Z" transform="translate(-11.84 -26.99)"/><path class="cls-18" d="M257.09,188l-1-1Z" transform="translate(-11.84 -26.99)"/><path class="cls-18" d="M256.41,165.25l-1.26.94A1.14,1.14,0,0,1,256.41,165.25Z" transform="translate(-11.84 -26.99)"/><path class="cls-17" d="M241,199.09a.71.71,0,0,1-.07-.6c.67-6.23,1.55-12.43,2-18.74,1.76,3.28,1,6.7,1.22,10,.15,2.13-.13,4.25.48,6.4C245.54,199.54,244.09,200.52,241,199.09Z" transform="translate(-11.84 -26.99)"/><path class="cls-16" d="M43.09,168.09c4.87,2.59,2.38,7.7,3.85,11.46.62,1.6-.09,3.75,2.24,4.48l1.39.08a15,15,0,0,1-.48,2c-.39,1-.52,2.69-1.75,2.64-1.73-.07-1.42-1.85-1.57-3.09L46,184.09C43.87,179,44.15,173.43,43.09,168.09Z" transform="translate(-11.84 -26.99)"/><path class="cls-12" d="M50.54,184.09H49.15c-.38-5.71,3.09-9.92,6.07-14.06,1.46-2,4.68-3.71,6.77.27-4.18-.9-6.4,1.48-7.87,4.86C52.82,178.09,51.72,181.09,50.54,184.09Z" transform="translate(-11.84 -26.99)"/><path class="cls-12" d="M61.92,170.25c2.37.45,4.94.66,5,4C64.64,173.72,62.65,172.78,61.92,170.25Z" transform="translate(-11.84 -26.99)"/><path class="cls-12" d="M71,179l-1.8.18L67,174.21C69.94,174.39,71,176.23,71,179Z" transform="translate(-11.84 -26.99)"/><path class="cls-12" d="M46,184.09l.75,1.48Z" transform="translate(-11.84 -26.99)"/><path class="cls-4" d="M60.23,149.09c-1.41-4.15-.38-6.08,4.35-5.07a35.12,35.12,0,0,0,5.42.31c1.87,1.29,4,.41,6,.8.28,1.89.24,4,3,4h0c.35,1.07,1.3,1.91,2.19,1.69,5.45-1.37,5.42,2,5,5.65-.17,1.39.75,3.42-.89,4a4.47,4.47,0,0,1-4.78-1.82c-1.44-1.84-3.11-2.9-5.5-2.56C71.09,151.69,64.31,153.27,60.23,149.09Z" transform="translate(-11.84 -26.99)"/><path class="cls-9" d="M73.14,191.09c-3.58,3.47-1.57,7.85-1.92,11.85-3.1-.52-1.27-4.1-3.06-5.5-1.55,1-.66,3.74-3.11,3.63a35.35,35.35,0,0,1,5-14.09c.08,1.88,1.31,2.17,2.83,2.07.09.68.17,1.37.25,2.06Z" transform="translate(-11.84 -26.99)"/><path class="cls-11" d="M75,156.09c2.39-.34,4.06.72,5.5,2.56a4.47,4.47,0,0,0,4.78,1.82c1.64-.58.72-2.61.89-4,.44-3.7.47-7-5-5.65-.89.22-1.84-.62-2.19-1.69,2.66-.08,5.34,0,7.82-1.24q.08,7.7.14,15.38C81.84,162.85,78.49,159.39,75,156.09Z" transform="translate(-11.84 -26.99)"/><path class="cls-12" d="M95.09,183c-5.31-1.59-10.59-.78-15.87.2L79,182.09l.08-.07a2,2,0,0,0,2-.93l3-.17h.47l.46-.11H91.1l.46.1.48-.06,3,.2C95.09,181.74,95.09,182.38,95.09,183Z" transform="translate(-11.84 -26.99)"/><path class="cls-9" d="M95.09,183v-1.94c.87-1.15,2.42-1.69,3.35-1.14,1.13.66-.62,1.93-.32,3Z" transform="translate(-11.84 -26.99)"/><path class="cls-12" d="M73.09,191.09c-.08-.69-.16-1.38-.25-2.06l.3-1.93,2-2,2.11,0C75.81,187.09,74.46,189.09,73.09,191.09Z" transform="translate(-11.84 -26.99)"/><path class="cls-9" d="M71.38,182.09V179c.73.16,1.89-.15,2,.82a2.07,2.07,0,0,1-1.86,2.26Z" transform="translate(-11.84 -26.99)"/><path class="cls-9" d="M75.09,185.09l-1.87,2.07C71.59,184.46,74,185.38,75.09,185.09Z" transform="translate(-11.84 -26.99)"/><path class="cls-9" d="M81.09,181.09a2,2,0,0,1-2,.92c.13-.73,0-1.88.46-2.09C80.3,179.48,80.74,180.38,81.09,181.09Z" transform="translate(-11.84 -26.99)"/><path class="cls-9" d="M79,182.09l.27,1.18-.07-.09-1,1h0L77.09,184a1.85,1.85,0,0,1,1.8-1.9Z" transform="translate(-11.84 -26.99)"/><path class="cls-12" d="M77.09,184l1.11.18a1,1,0,0,1-1,1Z" transform="translate(-11.84 -26.99)"/><path class="cls-9" d="M92.09,180.89l-.48.06-.46-.1C91.46,180.43,91.78,180.47,92.09,180.89Z" transform="translate(-11.84 -26.99)"/><path class="cls-9" d="M85.09,180.82l-.46.11h-.47C84.4,180.47,84.71,180.42,85.09,180.82Z" transform="translate(-11.84 -26.99)"/><path class="cls-1" d="M65.09,201.09c2.45.11,1.56-2.59,3.11-3.63,1.79,1.4,0,5,3.06,5.5l-.05.07.82,1c.08.68.15,1.36.24,2.05-2.27.59-3-1.45-4.11-2.74-2,1.76.29,3.19,0,4.69-.34,1-.67,2-1,3h-2a2.06,2.06,0,0,0-1-2c0-1.09-.09-2.18-.13-3.27a1.27,1.27,0,0,1,.06-.72c.68-.28.82-.61.09-1Z" transform="translate(-11.84 -26.99)"/><path class="cls-9" d="M64,205.82c0,1.09.08,2.18.13,3.27H62.22A3.54,3.54,0,0,1,64,205.82Z" transform="translate(-11.84 -26.99)"/><path class="cls-9" d="M64.09,204.09c.73.4.59.73-.09,1Z" transform="translate(-11.84 -26.99)"/><path class="cls-9" d="M65.09,211.09h2c.16,1,1.7,2.34-.25,2.73S65.23,212.31,65.09,211.09Z" transform="translate(-11.84 -26.99)"/><path class="cls-13" d="M60.82,140.42c-1.33.8-3.57-.23-3.9,2.64-.71,6.16-1.31,6.47-7.58,5.9-.85-1.51-3.2-1.63-3.42-3.72,1.81,0,3.62,0,5.43-.17,2-.15,4.85,1,3.24-3.41-.5-1.4,2.83-4.18,4.62-6.61C60.24,137,57.82,139.6,60.82,140.42Z" transform="translate(-11.84 -26.99)"/><path class="cls-7" d="M64.09,130.09c-2.22,1.8-5.16,1.85-6.55,0s-.86-5,.62-7.44c1.24-2,3.13-1.78,4.77-.93,2.51,1.29,4.89,2.91,4.53,6.32a1.15,1.15,0,0,1-1.26,1L66,129c0-3.52-2.3-4.42-5.11-3.88-.93.18-1.91,2-1.46,3.31C60.22,130.57,62.32,130,64.09,130.09Z" transform="translate(-11.84 -26.99)"/><path class="cls-13" d="M78.49,140.22c-5.11,1.74-10.27,1.11-15.42.3.62-2.82.75-2.94,2.17-1.49s2.76,1.25,4.22.49c.63-1.79-2.61-1.06-1.69-2.92C72.24,135.16,74.74,139.53,78.49,140.22Z" transform="translate(-11.84 -26.99)"/><path class="cls-4" d="M64.09,130.09c-1.75,0-3.85.53-4.63-1.67-.47-1.33.51-3.18,1.44-3.33,2.81-.54,5.1.36,5.11,3.88Z" transform="translate(-11.84 -26.99)"/><path class="cls-13" d="M76,129.86c0,.85-.1,1.92-1.16,1.78A3.13,3.13,0,0,1,72.29,129a1.28,1.28,0,0,1,.81-1.62,1.4,1.4,0,0,1,.5-.06C75.2,127.3,75.9,128.36,76,129.86Z" transform="translate(-11.84 -26.99)"/><path class="cls-13" d="M83.93,138.09c-1.21,1.64-3,1.95-4.84,2.06C79.65,137,82.22,138.51,83.93,138.09Z" transform="translate(-11.84 -26.99)"/><path class="cls-13" d="M46,145.23c-1-.51-2.26-.75-2.52-2.15C44.89,143.09,46.16,143.29,46,145.23Z" transform="translate(-11.84 -26.99)"/><path class="cls-4" d="M238.18,142l.93-2.16,1.9.23h1.08c-.39,1.89,1.72,2.42,2.14,3.87-3.84,1.46-1.4,4.81-2.16,7.19C241,148,240.21,144.76,238.18,142Z" transform="translate(-11.84 -26.99)"/><path class="cls-11" d="M238.18,142c2,2.73,2.79,6,3.87,9.12a3.81,3.81,0,0,0,.27.93l.78,4c-4.09-3.77-3.8-9.41-6-14Z" transform="translate(-11.84 -26.99)"/><path class="cls-4" d="M250,144a6.74,6.74,0,0,1,5-2.07C254.15,144.58,252,144.09,250,144Z" transform="translate(-11.84 -26.99)"/><path class="cls-4" d="M243.09,156.09l-.78-4c2.45.47,1.55,2.48,1.84,3.95l-.06.05A3.35,3.35,0,0,0,243.09,156.09Z" transform="translate(-11.84 -26.99)"/><path class="cls-4" d="M248.09,158.09a4.24,4.24,0,0,1-.11.7l-2.89.3c-.08-.6-.16-1.21-.25-1.82l.25-.18Z" transform="translate(-11.84 -26.99)"/><path class="cls-10" d="M253.09,157.09a2.28,2.28,0,0,1-3,1.11C250.77,156.86,251.88,156.82,253.09,157.09Z" transform="translate(-11.84 -26.99)"/><path class="cls-4" d="M244.16,143.93l1.92.22C245.32,145.15,244.67,145.09,244.16,143.93Z" transform="translate(-11.84 -26.99)"/><path class="cls-4" d="M248.09,144.14,250,144C249.5,145.09,248.85,145.14,248.09,144.14Z" transform="translate(-11.84 -26.99)"/><path class="cls-4" d="M244.16,156l.93,1.06-.21.18-.79-1.18Z" transform="translate(-11.84 -26.99)"/><path class="cls-11" d="M244.09,156.09l.79,1.17.21,1.83a2,2,0,0,1-2,.95v-3.95A3.35,3.35,0,0,1,244.09,156.09Z" transform="translate(-11.84 -26.99)"/><path class="cls-13" d="M94.09,165.92l-3.17-1.83c-1.8-1.6-3.63-3.18-2.77-6C89.85,160.92,94.81,161.26,94.09,165.92Z" transform="translate(-11.84 -26.99)"/><path class="cls-9" d="M86.85,147.93c-2.48,1.23-5.16,1.16-7.82,1.24h0a8,8,0,0,1-.86-4.86c3.18-.2,5.44-3.21,8.79-2.9Q86.93,144.67,86.85,147.93Z" transform="translate(-11.84 -26.99)"/><path class="cls-11" d="M78.2,144.27a8.06,8.06,0,0,0,.89,4.82c-2.81.06-2.77-2.07-3-4l.33-.38.29-.18Z" transform="translate(-11.84 -26.99)"/><path class="cls-11" d="M76,145.17c-2-.39-4.14.49-6-.8a13.41,13.41,0,0,1,6.36.2v.22Z" transform="translate(-11.84 -26.99)"/><path class="cls-9" d="M76.34,144.79v-.22h.28Z" transform="translate(-11.84 -26.99)"/><path class="cls-17" d="M154.18,168.31l-2.09-.16c-4-2.27-8.37-.61-12.55-1-2.42-.23-4.88,0-7.33-1.07h20.94A2.45,2.45,0,0,1,154.18,168.31Z" transform="translate(-11.84 -26.99)"/><path class="cls-17" d="M122.74,167.24c2.94-1.47,1.06-4.85,4.35-4.52a2,2,0,0,1,1.93,2.07,2.23,2.23,0,0,1-.05.36C128.39,168.22,126,166.74,122.74,167.24Z" transform="translate(-11.84 -26.99)"/><path class="cls-17" d="M139.16,162.27h4.91l1,.82c-1.76,1.81-4,.68-6,1Z" transform="translate(-11.84 -26.99)"/><path class="cls-18" d="M135.24,157.18a5.14,5.14,0,0,0-1,4.74c-1.77.14-2.25-.88-2-2.38A2.53,2.53,0,0,1,135.24,157.18Z" transform="translate(-11.84 -26.99)"/><path class="cls-18" d="M154.18,168.31a2.42,2.42,0,0,0-1-2.25l-.09-2.8c1.28-.17,1.91.44,2,1.68l.69,1.32C156.22,167.7,155.63,168.33,154.18,168.31Z" transform="translate(-11.84 -26.99)"/><path class="cls-18" d="M139.16,162.27l-.07,1.82c-1.73-.45-4,.36-4.8-2.2Z" transform="translate(-11.84 -26.99)"/><path class="cls-18" d="M141.17,152.2a4.33,4.33,0,0,1-2.89,2.3,2.41,2.41,0,0,1,2.47-2.35A3,3,0,0,1,141.17,152.2Z" transform="translate(-11.84 -26.99)"/><path class="cls-18" d="M150.09,162.39l2.2-.35.6,1.08C151.92,163.09,150.89,163.23,150.09,162.39Z" transform="translate(-11.84 -26.99)"/><path class="cls-18" d="M145.09,149.09a2.19,2.19,0,0,1-1.8,1.36C143.37,149.35,144.09,149.09,145.09,149.09Z" transform="translate(-11.84 -26.99)"/><path class="cls-18" d="M147.16,147.14l-1.07,1Z" transform="translate(-11.84 -26.99)"/><path class="cls-18" d="M148.39,146.25l-1.3.91Z" transform="translate(-11.84 -26.99)"/><path class="cls-18" d="M145.09,163.09l-1-.86h1.07A3.61,3.61,0,0,0,145.09,163.09Z" transform="translate(-11.84 -26.99)"/><path class="cls-18" d="M142.34,151.22l-1.16,1Z" transform="translate(-11.84 -26.99)"/><path class="cls-18" d="M137.31,155.2l-1.13,1.08Z" transform="translate(-11.84 -26.99)"/><path class="cls-17" d="M99.82,163.47c.28.12.71.19.79.39s-.2.53-.32.81c-.28-.12-.71-.18-.79-.38S99.7,163.75,99.82,163.47Z" transform="translate(-11.84 -26.99)"/><path class="cls-1" d="M108,184.18a1.73,1.73,0,0,1-.89,1.83C107.09,185.23,107.18,184.52,108,184.18Z" transform="translate(-11.84 -26.99)"/><path class="cls-11" d="M241,140.09l-1.9-.23,2.11-.93-.06.08Z" transform="translate(-11.84 -26.99)"/><path class="cls-8" d="M184.2,128.46c2.52-4.57,7.52-2.68,11.18-4.28C192.34,127.39,188.23,127.83,184.2,128.46Z" transform="translate(-11.84 -26.99)"/><path class="cls-16" d="M175.09,146.15a4.36,4.36,0,0,1,3.15-4C178.24,144.33,176.72,145.29,175.09,146.15Z" transform="translate(-11.84 -26.99)"/><path class="cls-10" d="M163.09,160.09c0-1.33.56-2.06,2-2A2.62,2.62,0,0,1,163.09,160.09Z" transform="translate(-11.84 -26.99)"/><path class="cls-10" d="M165.09,158.09a2,2,0,0,1,.93-2,2.37,2.37,0,0,1,.06.84Z" transform="translate(-11.84 -26.99)"/><path class="cls-16" d="M166.09,156.9a2.37,2.37,0,0,0-.06-.84l1.06-1A2.06,2.06,0,0,1,166.09,156.9Z" transform="translate(-11.84 -26.99)"/><path class="cls-16" d="M172,149.88c.08-.82.33-1.52,1.23-1.76a1.51,1.51,0,0,1-1.21,1.76Z" transform="translate(-11.84 -26.99)"/><path class="cls-16" d="M170.14,151.23a1.87,1.87,0,0,1,1.73-1.27A1.58,1.58,0,0,1,170.14,151.23Z" transform="translate(-11.84 -26.99)"/><path class="cls-10" d="M162.09,162.09c-.11-.9,0-1.68,1-2A1.77,1.77,0,0,1,162.09,162.09Z" transform="translate(-11.84 -26.99)"/><path class="cls-16" d="M173.09,148.17c.35-.35.69-.71,1-1.07C174.09,147.76,173.84,148.16,173.09,148.17Z" transform="translate(-11.84 -26.99)"/><path class="cls-16" d="M174.09,147.17c.34-.37.69-.73,1-1.09C174.8,146.44,174.45,146.8,174.09,147.17Z" transform="translate(-11.84 -26.99)"/><path class="cls-16" d="M169.09,152.62c.36-.49.72-1,1.07-1.49C169.85,151.63,169.49,152.09,169.09,152.62Z" transform="translate(-11.84 -26.99)"/><path class="cls-12" d="M203.09,153.16l.6-.52v.79a.46.46,0,0,1-.6-.26Z" transform="translate(-11.84 -26.99)"/><path class="cls-16" d="M168.09,154.17l1-1.24Z" transform="translate(-11.84 -26.99)"/><path class="cls-16" d="M167.09,155.09l1.11-1A1.06,1.06,0,0,1,167.09,155.09Z" transform="translate(-11.84 -26.99)"/><path class="cls-16" d="M96,218a3.15,3.15,0,0,1-2.73-.9c-6.36-4.79-4.3-22.74,3-26,3.8-1.68,6,.75,7.77,3.41,3.4,5.16,1.81,16-2.81,20.66.29-1.37.57-2.74.85-4.11l1-3a1.74,1.74,0,0,0,.73-2l.17-4c0-1.75.75-3.63-.9-5.08l-.94-1c-3.62-3.75-5.55-1.43-7.18,2h0c-1.71.85-2.06,2.33-1.91,4L93,204a1.91,1.91,0,0,0-.67,2l0,5,.69,1.19c0,1.07-.09,2.14,1,2.81C94.53,216.18,96.27,216.37,96,218Z" transform="translate(-11.84 -26.99)"/><path class="cls-17" d="M90,189.25c-.86.44-1.15.73-1.43.71-2-.08-4.28,1-6-.84a1,1,0,0,1,.18-1.47.94.94,0,0,1,.31-.17C85.43,186.76,87.75,186.79,90,189.25Z" transform="translate(-11.84 -26.99)"/><path class="cls-9" d="M96,218c.24-1.62-1.5-1.81-2-2.86,4,1.16,5.23-3,8.11-4-.28,1.37-.56,2.74-.85,4.11C100.21,217.42,97.76,217,96,218Z" transform="translate(-11.84 -26.99)"/><path class="cls-17" d="M94,188.43c2.16-2.16,3.88-3,6.08-1.62.63.39.89,1.37.4,1.67C98.64,189.56,96.69,189.23,94,188.43Z" transform="translate(-11.84 -26.99)"/><path class="cls-12" d="M78.15,184.18l1-1A1,1,0,0,1,78.15,184.18Z" transform="translate(-11.84 -26.99)"/><path class="cls-7" d="M155.09,207.43c-2.43-2.78-2-8,1.17-9.87A26,26,0,0,1,169.42,194c2.77,0,3.9,1.32,3.58,4h0a3.39,3.39,0,0,0-1.82,2.1l-.08.07c-1.81.36-2.73,3.15-5.14,1.89-.58-2.4,2.68-1.43,2.93-3.2-11.54.16-12.68.89-12.8,8.24Z" transform="translate(-11.84 -26.99)"/><path class="cls-17" d="M155.09,207.43l1-.34c1.17.51,2-.42,3-.62.12.61.31,1.36,1,1.24,1.27-.21.85-1.39,1-2.22,1.52-.38,1.94-2.76,4-2.19.66,1.32,2.11,1.46,3.15,2.19,1.26.89.85,2.62-.54,2.36-7.62-1.43-.52,3.32-2.34,4.72C161.82,211.47,156.5,213.8,155.09,207.43Z" transform="translate(-11.84 -26.99)"/><path class="cls-4" d="M159.09,206.44c-1,.2-1.88,1.13-3,.62.17-7.32,1.31-8,12.85-8.19-.25,1.77-3.51.8-2.93,3.2l-.92,1.2c-2-.57-2.46,1.81-4,2.19C160.09,205.16,159.78,206.14,159.09,206.44Z" transform="translate(-11.84 -26.99)"/><path class="cls-17" d="M173,198c2.82.19,2.07-6.49,6.76-3-2.47,1.92-2.81,5.39-5.94,7.08-2.78,1.5-2.66,0-2.72-1.85l.08-.07a1.76,1.76,0,0,0,1.87-1.64,1.71,1.71,0,0,0,0-.45Z" transform="translate(-11.84 -26.99)"/><path class="cls-9" d="M72,204.09l-.82-1Z" transform="translate(-11.84 -26.99)"/><path class="cls-7" d="M241,140.09l.15-1.08.93,1.08Z" transform="translate(-11.84 -26.99)"/><path class="cls-1" d="M102.09,211.09c-2.9,1-4.18,5.2-8.13,4-1.08-.67-1-1.74-1-2.81l-.7-1.19c0-1.68,0-3.35,0-5,1.35-.31,2.2-.79.67-2,0-.66.08-1.32.11-2,1.81-.8,2.09-2.31,1.91-4h0c2.71.47,4.34-2.94,7.18-2,.31.33.63.65.94,1,.16,1.72-.7,3.62.9,5.08,0,1.33-.11,2.66-.17,4-1.34.28-2.25.72-.73,2ZM98.72,200c.43,3.6-4.81,6.6-1.12,10.55-.65-3.69,3.34-6.68,1.14-10.55Z" transform="translate(-11.84 -26.99)"/><path class="cls-9" d="M102.2,196c-2.84-.94-4.47,2.47-7.18,2C96.65,194.6,98.58,192.28,102.2,196Z" transform="translate(-11.84 -26.99)"/><path class="cls-9" d="M95.09,198c.18,1.74-.1,3.25-1.91,4C93,200.36,93.33,198.88,95.09,198Z" transform="translate(-11.84 -26.99)"/><path class="cls-9" d="M104.09,202.09c-1.6-1.46-.74-3.36-.9-5.08C104.79,198.45,104.09,200.33,104.09,202.09Z" transform="translate(-11.84 -26.99)"/><path class="cls-9" d="M103.14,208.09c-1.52-1.31-.61-1.75.73-2A1.74,1.74,0,0,1,103.14,208.09Z" transform="translate(-11.84 -26.99)"/><path class="cls-9" d="M93,204.09c1.53,1.26.68,1.74-.67,2A1.91,1.91,0,0,1,93,204.09Z" transform="translate(-11.84 -26.99)"/><path class="cls-9" d="M92.3,211.09l.7,1.19Z" transform="translate(-11.84 -26.99)"/><path class="cls-13" d="M173,198a1.77,1.77,0,0,1-1.42,2,2,2,0,0,1-.42,0A3.4,3.4,0,0,1,173,198Z" transform="translate(-11.84 -26.99)"/><path class="cls-13" d="M159.09,206.44c.69-.3,1-1.28,2-1-.14.83.28,2-1,2.22C159.4,207.8,159.21,207.09,159.09,206.44Z" transform="translate(-11.84 -26.99)"/><path class="cls-9" d="M98.74,200c2.2,3.87-1.79,6.86-1.12,10.55C93.93,206.56,99.17,203.56,98.74,200Z" transform="translate(-11.84 -26.99)"/></svg>